
<svg xmlns="http://www.w3.org/2000/svg" version="1.1" xmlns:xlink="http://www.w3.org/1999/xlink" preserveAspectRatio="none" x="0px" y="0px" width="1080px" height="1080px" viewBox="0 0 1080 1080">
<defs>
<g id="Symbol_1_0_Layer0_0_FILL">
<path fill="#000000" stroke="none" d="
M 1159.4 904.05
Q 1149.45 894.05 1135.35 894.05 1121.3 894.05 1111.35 904.05 1105.5322265625 909.8677734375 1103.1 917.05 1102.533984375 919.9142578125 1101.8 922.55 1098.525390625 934.4546875 1092.2 942.95 1075.3919921875 965.7208984375 1032.65 977.95 1024.2955078125 983.875 1025.5 989.8 1019.001171875 998.693359375 1022 1002 1092.041015625 1011.898828125 1171.05 995.1 1172.709375 995.3888671875 1172.55 992.95
L 1172.55 980.95
Q 1172.2912109375 978.3466796875 1170.85 978.7 1170.105859375 978.8513671875 1169.35 979 1172.584375 957.17890625 1169.35 927.15 1169.1896484375 925.7865234375 1169 924.35 1168.896875 923.1912109375 1168.75 922 1168.6578125 921.2474609375 1168.55 920.45 1168.2544921875 918.987109375 1167.8 917.55 1165.35 910 1159.4 904.05 Z"/>
</g>

<g id="Symbol_1_0_Layer0_1_FILL">
<path fill="#000000" stroke="none" d="
M 1169 924.35
Q 1168.896875 923.1912109375 1168.75 922 1168.6578125 921.2474609375 1168.55 920.45 1168.2544921875 918.987109375 1167.8 917.55 1165.35 910 1159.4 904.05 1149.45 894.05 1135.35 894.05 1121.3 894.05 1111.35 904.05 1105.5322265625 909.8677734375 1103.1 917.05 1102.533984375 919.9142578125 1101.8 922.55 1101.4 925.23203125 1101.4 928.05 1101.4 942.15 1111.35 952.1 1121.3 962.05 1135.35 962.05 1149.45 962.05 1159.4 952.1 1167.3 944.2 1168.95 933.75 1169.35 930.95 1169.35 928.05 1169.35 927.6130859375 1169.35 927.15 1169.1896484375 925.7865234375 1169 924.35 Z"/>
</g>

<g id="Symbol_2_0_Layer0_0_FILL">
<path fill="#000000" stroke="none" d="
M 1102.25 728.25
Q 1102.845703125 729.1044921875 1103.45 729.85 1102.4091796875 743.6408203125 1103.05 753.3 1103.0978515625 754.060546875 1103.15 754.8 1100.282421875 754.6078125 1099.8 756.25 1098.21484375 833.863671875 1104.3 873.55 1106.871875 898.82734375 1103.1 917.05 1102.533984375 919.9142578125 1101.8 922.55 1101.4 925.23203125 1101.4 928.05 1101.4 942.15 1111.35 952.1 1121.3 962.05 1135.35 962.05 1149.45 962.05 1159.4 952.1 1167.3 944.2 1168.95 933.75 1169.35 930.95 1169.35 928.05 1169.35 927.6130859375 1169.35 927.15 1169.1896484375 925.7865234375 1169 924.35 1168.896875 923.1912109375 1168.75 922 1168.6578125 921.2474609375 1168.55 920.45 1167.9748046875 914.89140625 1167.9 908.7 1167.7234375 884.5013671875 1176 851.4 1187.3 805.9916015625 1178 754.1 1174.603515625 735.63125 1175.95 709 1176.1466796875 705.5720703125 1176.4 702 1176.338671875 695.4080078125 1174.5 689.65 1171.5 680.4 1164.25 673.15 1152.05 660.9 1134.85 660.9 1117.65 660.9 1105.5 673.15 1093.5822265625 685.0189453125 1093.3 701.65 1096.03125 719.36953125 1102.25 728.25 Z"/>
</g>

<g id="Symbol_2_0_Layer0_1_FILL">
<path fill="#000000" stroke="none" d="
M 1102.25 728.25
Q 1103.76171875 730.11875 1105.5 731.85 1117.65 744.05 1134.85 744.05 1152.05 744.05 1164.25 731.85 1173.9 722.2 1175.9 709.45 1175.9328125 709.2232421875 1175.95 709 1176.1466796875 705.5720703125 1176.4 702 1176.338671875 695.4080078125 1174.5 689.65 1171.5 680.4 1164.25 673.15 1152.05 660.9 1134.85 660.9 1117.65 660.9 1105.5 673.15 1093.5822265625 685.0189453125 1093.3 701.65 1096.03125 719.36953125 1102.25 728.25 Z"/>
</g>

<g id="Symbol_2_0_Layer0_2_FILL">
<path fill="#000000" stroke="none" d="
M 1169 924.35
Q 1168.896875 923.1912109375 1168.75 922 1168.6578125 921.2474609375 1168.55 920.45 1168.2544921875 918.987109375 1167.8 917.55 1165.35 910 1159.4 904.05 1149.45 894.05 1135.35 894.05 1121.3 894.05 1111.35 904.05 1105.5322265625 909.8677734375 1103.1 917.05 1102.533984375 919.9142578125 1101.8 922.55 1101.4 925.23203125 1101.4 928.05 1101.4 942.15 1111.35 952.1 1121.3 962.05 1135.35 962.05 1149.45 962.05 1159.4 952.1 1167.3 944.2 1168.95 933.75 1169.35 930.95 1169.35 928.05 1169.35 927.6130859375 1169.35 927.15 1169.1896484375 925.7865234375 1169 924.35 Z"/>
</g>

<g id="Symbol_6_copy_0_Layer0_0_FILL">
<path fill="#000000" stroke="none" d="
M 25.8 -51.65
Q 9.7 -57.95 7.75 -50.55 5.75 -44.1 3.05 -41.1 1.75 -39.7 0.1 -38.3
L 0.1 -38.25
Q -5.35 -33.65 -14.4 -29.2 -22.4 -25.4 -28.3 -17.95 -31.05 -14.45 -33.6 -5.65 -35.65 1.1 -40.9 5.45 -47.9 11.35 -42 14.05 -35.25 17.05 -27.5 10.55 -18.75 3.2 -15.4 -9.85 -10.25 4 -15.75 14.3 -23.15 25.5 -26.6 35.35 -31.75 39 -34.25 42.65 -44.6 42.55 -43 50.5 -38.75 49.6 -31.15 50.5 -29.65 50.05 -28.2 49.5 -27.9 49.6 -27.6 49.75 -24.4 51 -19.45 50.95 -19.25 51.15 -19.05 51.35 -16.95 53.3 -11.5 54.6 -3.3 53.15 1.25 51.7 1.7 51.7 2.15 51.7 2.45 51.65 2.85 51.65 7.4 51.3 13.75 48.3 21.35 41.85 24.45 29.45 39.6 5.85 43.95 -12.8 45.45 -19.15 43.95 -20.1 41.9 -45.4 25.8 -51.65 Z"/>
</g>

<g id="Symbol_6_copy_0_Layer0_1_STROKES_1_FILL">
<path fill="#FFFFFF" stroke="none" d="
M 9.5 -53.9
L 8.5 -53.1 7.8 -52.05 7.3 -50.9 7.25 -50.75 7.25 -50.6 6.2 -47.65
Q 5.8 -46.5 5.3 -45.6 4.9 -44.65 4.25 -43.6 3.6 -42.5 3 -41.8
L 2.7 -41.5 2.65 -41.4 -0.2 -38.65
Q -0.3443359375 -38.5056640625 -0.35 -38.3
L -0.35 -38.4
Q -0.6 -37.7 -1.1 -36.8
L -1.4 -36.2 -1.55 -36 -1.75 -35.6 -7.4 -27.9 -8.3 -26.85 -8.45 -26.7 -12.05 -21.55 -12.7 -20.3 -12.95 -19.9 -14.3 -16.95 -15.4 -13.4
Q -15.5 -13.2 -15.4 -13.1
L -15.4 -13.05 -15 -12.25 -14.85 -12.05 -14.8 -11.85 -13.9 -9.95 -13.85 -9.75 -12.85 -7.2 -11.95 -4.15 -11.3 -0.1 -11.35 3.45 -11.35 3.7 -11.4 3.9 -11.5 4.8 -11.95 6.8 -12.05 7 -12.15 7.4 -12.25 7.65 -12.3 7.85 -12.8 9.1 -13.85 11.1 -14 11.3 -14.1 11.5 -15 12.8 -15.15 12.95 -15.4 13.35 -16 14.05
Q -16.3 14.35 -15.95 14.55
L -15.8 14.65 -15.3 14.75 -11.75 15.95 -8.6 17.85 -7.55 18.7 -7.35 18.9 -7.15 19.05 -6.75 19.45 -6.55 19.6 -6.4 19.8 -6 20.2 -5.85 20.4 -5.65 20.6 -5.5 20.8 -5.3 21 -5 21.4 -4.8 21.6 -2.8 24.75
Q -2.7 24.9 -2.5 24.9
L -1.35 24.95 -1.15 25 -0.65 25 -0.15 25.1 0 25.1 0.15 25.15
Q 0.35 25.2 0.8 25.3
L 1.15 25.35 1.8 25.55 2.1 25.7 2.9 26 3.05 26.1 3.35 26.25 3.5 26.35 3.65 26.4 3.75 26.5 4.35 26.9 4.45 27 4.7 27.2 4.8 27.25 4.85 27.3 4.95 27.45 5.45 27.9 5.9 28.45 6 28.55 6.5 29.25 6.65 29.55 6.7 29.55
Q 6.8 29.75 7 29.65
L 8.6 28.8 8.75 28.75 9 28.6 9.55 28.4 9.8 28.35 9.95 28.3 10.05 28.25 10.35 28.2 10.45 28.2 10.6 28.15 10.9 28.1 12.25 28.1 12.55 28.15 12.65 28.2 12.8 28.25
Q 13 28.25 13.35 28.4
L 13.45 28.45 13.85 28.6 14.2 28.8 14.3 28.9 14.45 28.95 14.55 29.05 15 29.35 15.2 29.55 15.4 29.6
Q 15.85 29.4 16.35 29.3
L 18.35 28.8 18.5 28.8 18.6 28.75 18.85 28.75 19 28.7 19.5 28.7 19.65 28.65 20.65 28.65 20.9 28.7 21.15 28.7 21.4 28.75 21.7 28.75 22.95 29 24.4 29.5
Q 24.45 29.55 24.5 29.5
L 32.8 15.65 33.05 15.3 37.25 6.95 41.3 -2.85 41.4 -3.05 44.45 -13.45
Q 44.95 -15.75 45 -16.85 45.1 -18.05 45 -18.65 45 -18.95 44.8 -19.55
L 44.55 -20 44.3 -20.25
Q 44.1390625 -22.3876953125 43.85 -24.7 43.3 -27.85 43 -29.25 42.6 -31.25 41.85 -33.75 41 -36.25 40.15 -38.05 39.3 -40.05 37.95 -42.15 36.6 -44.2 35.1 -45.85 33.5 -47.65 31.6 -49 29.65 -50.4 27.6 -51.35
L 27.05 -51.6 26.8 -51.75 21.05 -53.8 16.5 -54.8
Q 15.5 -55 14.15 -55 12.95 -55.1 11.8 -54.8 11.4 -54.75 10.6 -54.45 9.9 -54.2 9.5 -53.9
M 8.25 -50.6
L 8.65 -51.55
Q 9.2 -52.55 10.05 -53.05 10.2 -53.2 10.95 -53.55
L 12 -53.85
Q 13.05 -54.05 14.15 -54
L 16.4 -53.85 20.8 -52.85 26.65 -50.75 27.2 -50.5
Q 29.4 -49.45 31.05 -48.2 32.8 -46.95 34.4 -45.2 35.75 -43.8 37.2 -41.65 38.2 -40.1 39.35 -37.7 40.05 -36.15 41 -33.45 41.7 -31.2 42.2 -29.05 42.8 -26.25 43 -24.6
L 43.55 -20.05
Q 43.55 -19.8 43.7 -19.75 44 -19.55 44.05 -19.25
L 44.25 -18.55
Q 44.35 -17.7 44.25 -16.9 44.15 -15.75 43.75 -13.6
L 40.85 -3.45 40.75 -3.25 40.7 -3.05 37.95 4 37.75 4.35 31.25 17.7 24.4 29.3 22.5 28.65 21.45 28.45 21.2 28.45 20.95 28.4 19.1 28.4 18.95 28.45 18.6 28.45 18.45 28.5 18.3 28.5 15.35 29.2 15.45 29.3 15.25 29.25 15.35 29.2 15 28.9 14.75 28.75 14.65 28.65 14.5 28.6 14.4 28.5 14.25 28.4 14 28.3 13.75 28.15 12.75 27.8 12.6 27.8 12 27.7 11.9 27.7 11.75 27.65 10.85 27.7 10.55 27.75 10.4 27.75 10.25 27.8 9.95 27.85 9.8 27.9 9.7 27.95 9.4 28 8.45 28.35 8.3 28.45 7.8 28.65 6.95 29.1 6.9 29 6.4 28.25 5.8 27.6 5.6 27.3 5.3 27.05 5.2 26.95 5.1 26.9 4.8 26.6 3.9 25.95 3.75 25.9 3.3 25.6 3.15 25.55 2.3 25.15 1.65 24.95 1.3 24.8 0.05 24.55 -0.05 24.55 -0.4 24.45 -0.75 24.45 -1.1 24.4 -1.3 24.4 -1.45 24.35 -2.35 24.35 -2.25 24.5 -2.5 24.35 -2.35 24.35 -2.5 24 -4.15 21.45 -4.8 20.6 -5 20.4 -5.15 20.15 -5.75 19.55 -5.9 19.35 -6.7 18.55 -6.9 18.4 -7.3 18 -11 15.55 -13.5 14.5 -15.1 14.05 -13.3 11.7 -12.5 10.3 -11.55 8.1 -11.5 7.9 -11.4 7.7 -11.2 7.1 -11.2 7 -10.7 4.95 -10.65 4.45 -10.55 4 -10.55 3.75 -10.5 3.55 -10.5 -0.65 -11.1 -4.35 -11.85 -7.05 -11.95 -7.25 -12 -7.5 -12.3 -8.35 -14.5 -13.4 -14.55 -13.15 -14.55 -13.5 -14.5 -13.4 -13.05 -17.45 -13 -17.65 -11.8 -20.1 -11.65 -20.25 -11.45 -20.65 -7.85 -25.9 -7.7 -26.05 -0.9 -35.1 -0.7 -35.5 -0.55 -35.7 0.55 -38.05 0.4 -37.9 0.55 -38.25 0.55 -38.05 3.35 -40.7 3.4 -40.7 3.4 -40.75 3.45 -40.8 3.55 -40.95 3.75 -41.15
Q 4.5 -42.05 5.1 -43.1 5.85 -44.3 6.2 -45.15
L 7.15 -47.3
Q 7.4 -48.05 7.9 -49.5
L 8.2 -50.3 8.2 -50.4 8.25 -50.5 8.25 -50.6 Z"/>
</g>

<g id="Layer4_3_MEMBER_0_FILL">
<path fill="#000000" stroke="none" d="
M 320.15 244.7
L 312.35 245.15 313.8 269.7 321.6 269.25 320.15 244.7 Z"/>
</g>

<g id="Layer4_3_MEMBER_1_FILL">
<path fill="#000000" stroke="none" d="
M 321.35 277.95
L 313.6 278.4 315.05 302.95 322.8 302.5 321.35 277.95 Z"/>
</g>

<g id="Layer4_3_MEMBER_2_FILL">
<path fill="#000000" stroke="none" d="
M 631.6 186.65
Q 621.6 178.2 616.45 176.65 609.5 174.35 551.25 179.9 490.5 185.55 483.05 191.8 475.75 197.95 483.65 310.05 491.25 417.2 495.1 427.45 497.5 433.95 558.6 436.2 619.95 438.5 626.8 432 631.75 427.3 638 313.9 644 202.75 642.3 198.05 641.25 194.8 631.6 186.65 Z"/>
</g>

<g id="Layer4_3_MEMBER_3_FILL">
<path fill="#000000" stroke="none" d="
M 326.65 268.75
Q 325.35 237.9 324.8 214.15 322.65 214.85 318.55 218.35 314.55 221.75 314.1 223.05 313.4 225 315.9 271.2 318.5 318.35 320.55 320.3 321.85 321.5 329.7 322 328.25 306.4 326.65 268.75 Z"/>
</g>

<g id="Layer4_3_MEMBER_4_FILL">
<path fill="#FFFFFF" stroke="none" d="
M 319.2 238.7
L 318.7 238.75 323.1 306.95 323.6 306.9 319.2 238.7 Z"/>
</g>

<g id="Layer4_3_MEMBER_5_FILL">
<path fill="#FFFFFF" stroke="none" d="
M 322.3 230.05
Q 322.25 226.15 321.1 223.45 320 220.7 318.55 220.7 317.1 220.7 316.1 223.45 315.15 226.25 315.2 230.1 315.3 233.95 316.45 236.7 317.55 239.45 319 239.45 320.45 239.4 321.4 236.65 322.4 233.95 322.3 230.05
M 320.8 224.35
Q 321.75 226.7 321.8 230.05 321.9 233.4 321.05 235.75 320.25 238.15 318.95 238.15 317.7 238.2 316.75 235.8 315.8 233.45 315.7 230.1 315.65 226.75 316.45 224.4 317.3 222 318.55 222 319.8 221.95 320.8 224.35 Z"/>
</g>

<g id="Symbol_7_copy_0_Layer2_0_FILL">
<path fill="#000000" stroke="none" d="
M 1389.05 294.2
Q 1389.31484375 292.235546875 1389.55 290.3 1389.55 290.187109375 1389.55 290.05 1389.55 277.15 1380.35 268 1371.3 258.9 1358.4 258.9 1345.5 258.9 1336.35 268 1330.58671875 273.794921875 1328.45 281.1 1327.816796875 285.1322265625 1327.25 289.45 1325.979296875 299.183203125 1325.15 310.3
L 1323.55 377.7
Q 1327.2810546875 387.39921875 1346.85 390.5 1368.1451171875 393.6673828125 1373.75 385.2
L 1389.05 294.2 Z"/>
</g>

<g id="Symbol_7_copy_0_Layer2_1_FILL">
<path fill="#000000" stroke="none" d="
M 1389.55 290.05
Q 1389.55 277.15 1380.35 268 1371.3 258.9 1358.4 258.9 1345.5 258.9 1336.35 268 1327.25 277.15 1327.25 290.05 1327.25 302.95 1336.35 312.05 1345.5 321.2 1358.4 321.2 1371.3 321.2 1380.35 312.05 1389.55 302.95 1389.55 290.05 Z"/>
</g>

<g id="Symbol_7_copy_0_Layer1_0_FILL">
<path fill="#000000" stroke="none" d="
M 20.4 23.75
Q 19.7365234375 12.5669921875 0.5 7.85 -0.53359375 7.590625 -1.65 7.35 -6.2427734375 6.333203125 -10.15 5.9 -17.758984375 5.095703125 -22.75 6.55 -29.85 8.6 -31.7 15.15 -30.75 41.7 -35.35 67.4
L -38.55 99.4 -20.05 101.4 3.7 82.7 20.4 23.75 Z"/>
</g>

<g id="Symbol_7_copy_0_Layer0_0_STROKES_1_FILL">
<path fill="#FFFFFF" stroke="none" d="
M 20.3 21.85
L 20.25 21.75 20.25 21.6 19.9 20.3 19.75 19.95 19.7 19.75 19.65 19.65 19.65 19.6 19.5 19.2 18.9 18 18.75 17.8 18.65 17.6 17.95 16.6 17.75 16.4
Q 17.2 15.65 16.3 14.75 14.6 13.1 12.35 11.85
L 11.8 11.5 7.45 9.45 3.35 8.1 3 7.95 -0.95 6.95 -1.3 6.9 -1.65 6.8 -3.9 6.35
Q -7.75 5.65 -9.8 5.45
L -15.6 5.15
Q -17.05 5.15 -18.4 5.3
L -22.3 6 -22.75 6.15 -22.85 6.15 -23.5 6.4
Q -24.85 6.8 -25.7 7.35
L -27.15 8.2 -27.55 8.5
Q -28.45 9.25 -29 9.85 -29.6 10.45 -30.1 11.2
L -30.85 12.5 -30.95 12.8 -31.1 13.05 -31.6 14.4 -31.75 15.1
Q -31.85 15.2 -31.7 15.2 -31.6 15.3 -31.6 15.15
L -31.5 15 -31.45 14.75 -31.35 14.5
Q -31 13.55 -30.5 12.65 -29.8 11.35 -28.65 10.2 -27.3 8.85 -25.4 7.9 -24.15 7.35 -23.3 7.1
L -22.7 6.9 -22.6 6.9 -22.55 6.85 -22.4 6.85 -22.1 6.75 -20.9 6.5 -15.6 6.05 -9.9 6.45
Q -6.9 6.75 -4.05 7.35
L -1.9 7.8 -1.7 7.8 0.25 8.25 0.4 8.3 1.65 8.6
Q 4.85 9.45 7.1 10.3
L 11.4 12.2 11.95 12.55 12.1 12.6 14.05 13.85
Q 15.15 14.6 15.85 15.25
L 16.05 15.45 16.25 15.6 17 16.35 17.3 16.75 17.5 16.95 18.35 18.1 18.45 18.3
Q 19.3 19.6 19.75 21.05
L 20 21.95 20.3 23.75
Q 20.3 23.9 20.4 23.8 20.55 23.8 20.45 23.7
L 20.45 23 20.4 22.6 20.35 22.4 20.35 22.15 20.3 21.85 Z"/>
</g>

<g id="Symbol_7_copy_0_Layer0_1_STROKES_1_FILL">
<path fill="#FFFFFF" stroke="none" d="
M 0.55 7.75
Q 0.45 7.65 0.45 7.8
L -6.85 71.95 -6.75 71.85 -6.85 72.05 -6.85 71.95 -22.65 94.7 -38.1 94.95 -38.15 95.05 -38.1 95.15 -22.5 95.35
Q -22.35 95.35 -22.2 95.2
L -6 72.4 -5.9 72.2 0.6 7.85
Q 0.7 7.75 0.55 7.75 Z"/>
</g>

<g id="Symbol_8_copy_0_Layer1_0_FILL">
<path fill="#000000" stroke="none" d="
M 38.2 -30.3
Q 28.941015625 -76.40234375 2.85 -95.95 -6.1541015625 -102.684765625 -14.75 -103.3 -30.8669921875 -104.480078125 -45.35 -83.8 -58.9923828125 -58.5845703125 -48 -19.5
L -45.6 -19.5 -10.55 92.15 50.25 76.6
Q 45.95 12.5 38.2 -30.3 Z"/>
</g>

<g id="Symbol_8_copy_0_Layer1_1_FILL">
<path fill="#000000" stroke="none" d="
M 1389.55 290.05
Q 1389.55 277.15 1380.35 268 1371.3 258.9 1358.4 258.9 1345.5 258.9 1336.35 268 1327.25 277.15 1327.25 290.05 1327.25 302.95 1336.35 312.05 1345.5 321.2 1358.4 321.2 1371.3 321.2 1380.35 312.05 1389.55 302.95 1389.55 290.05 Z"/>
</g>

<g id="Symbol_8_copy_0_Layer0_0_STROKES_1_FILL">
<path fill="#FFFFFF" stroke="none" d="
M -14.65 -103.35
Q -14.75 -103.45 -14.75 -103.3
L -19.05 -92.15 -29.95 -84.85 -38.2 -78 -39.65 -76.55 -39.85 -76.3 -40.1 -76.1
Q -41 -75.2 -41.9 -74.05
L -43.6 -71.9
Q -44.5 -70.7 -45.1 -69.6
L -45.45 -69 -45.45 -68.95 -45.5 -68.9 -45.5 -68.85 -45.6 -68.7 -45.8 -68.3 -45.8 -68.25 -46.05 -67.75 -46.1 -67.6 -46.2 -67.45 -47.9 -61.85 -48.75 -56.5
Q -49.05 -53 -49.1 -51.15
L -48.45 -33.85 -47.95 -29.85
Q -47.5 -27.15 -46.9 -24.65
L -45.65 -19.45
Q -45.65 -19.3 -45.55 -19.4 -45.4 -19.4 -45.5 -19.5
L -46.95 -30 -47.45 -40.55
Q -47.5 -43.15 -47.45 -45.8
L -47.3 -51.1
Q -47.15 -53.75 -46.85 -56.3 -46.35 -59.65 -45.95 -61.45 -45.8 -62.15 -45.3 -63.95 -44.8 -65.55 -44.45 -66.35
L -44.3 -66.8 -44.2 -66.9 -44.05 -67.35 -44 -67.4 -43.8 -67.8 -43.75 -67.95 -43.65 -68.05 -43.35 -68.6
Q -42.8 -69.6 -42 -70.75 -40.7 -72.6 -38.7 -74.75 -36.7 -76.85 -34.95 -78.45 -33.2 -80.05 -31 -81.85
L -18.3 -91.3 -18.25 -91.35
Q -18.15 -91.4 -18.05 -91.6
L -14.6 -103.25
Q -14.5 -103.35 -14.65 -103.35 Z"/>
</g>

<g id="Symbol_3_0_Layer0_0_FILL">
<path fill="#F1BDB3" stroke="none" d="
M 1102.25 728.25
Q 1103.76171875 730.11875 1105.5 731.85 1117.65 744.05 1134.85 744.05 1152.05 744.05 1164.25 731.85 1173.9 722.2 1175.9 709.45 1175.9328125 709.2232421875 1175.95 709 1176.1466796875 705.5720703125 1176.4 702 1176.338671875 695.4080078125 1174.5 689.65 1171.5 680.4 1164.25 673.15 1152.05 660.9 1134.85 660.9 1117.65 660.9 1105.5 673.15 1093.5822265625 685.0189453125 1093.3 701.65 1096.03125 719.36953125 1102.25 728.25 Z"/>
</g>

<g id="Symbol_3_0_Layer0_1_FILL">
<path fill="#000000" stroke="none" d="
M 58.7 -34.7
Q 58.6734375 -39.1986328125 58.55 -43.55
L 57.55 -66.2
Q 52.0115234375 -163.1431640625 15.3 -165.55 -17.2478515625 -167.4107421875 -29.1 -159.65 -32.3375 -158.888671875 -35.6 -150.8 -39.7654296875 -131.2005859375 -49.55 -68.95 -59.2943359375 -6.6505859375 -45.8 106 -46.1 114.1 -46.05 121.4 -45.95 139.45 -43.95 152.65 -41.2 170.35 -34.95 179.3 -33.5 181.1 -31.75 182.85 -19.6 195.05 -2.4 195.05 14.8 195.05 27 182.85 36.65 173.2 38.65 160.45 38.7 160.2 38.75 160 38.9 156.55 39.15 153 39.75 144.7 40.75 135.7 41.95 128.5 43.1 121.4 45.0439453125 109.25 46.75 97.5 57.4916015625 23.4296875 58.7 -34.7 Z"/>
</g>

<g id="Symbol_3_0_Layer0_2_FILL">
<path fill="#000000" stroke="none" d="
M 1091.8 645.4
L 1082.9 650.9
Q 1087.2041015625 650.20234375 1091.65 650.05 1091.391015625 665.1404296875 1093.9 680.8 1096.9 699.25 1103 713.75 1119.616796875 720.28515625 1136.5 715.55 1136.3921875 716.72578125 1136.25 717.9
L 1145.15 712.4
Q 1148.45 685.2 1143.6 655.2 1115.55 641.6 1091.8 645.4 Z"/>
</g>

<g id="Symbol_3_0_Layer0_3_FILL">
<path fill="#000000" stroke="none" d="
M -22.65 -101.45
L -26.65 -104.95 -57.15 -53.75 -52.95 -50.35 -31.05 -50.9
Q -24.2 -82.55 -22.65 -101.45 Z"/>
</g>

<g id="Symbol_3_0_Layer0_3_STROKES_1_FILL">
<path fill="#FFFFFF" stroke="none" d="
M -22.45 -101.6
L -26.55 -105
Q -26.6 -105.05 -26.7 -105
L -57.95 -54.25
Q -58.35 -53.5 -57.75 -52.95
L -53.55 -49.55
Q -53.3 -49.35 -52.9 -49.35
L -31 -49.9
Q -30.2 -49.9 -30.1 -50.65
L -24.35 -82.25 -22.35 -101.4 -22.45 -101.6
M -26.6 -104.75
L -22.9 -101.35 -22.9 -101.45 -22.8 -101.25 -22.9 -101.35 -29.95 -60.45 -31.8 -51.85 -52.55 -51.3 -55.85 -54 -26.6 -104.75 Z"/>
</g>

<g id="Symbol_3_0_Layer0_4_FILL">
<path fill="#000000" stroke="none" d="
M -42.25 -109.85
Q -51.15 -110.25 -58.4 -106.05 -62.55 -79.45 -57.05 -53.55
L -34.1 -54 -26.25 -104.65
Q -33.7 -109.35 -42.25 -109.85 Z"/>
</g>

<g id="Symbol_3_0_Layer0_4_STROKES_1_FILL">
<path fill="#FFFFFF" stroke="none" d="
M -50.75 -110.1
L -52.85 -109.5 -53 -109.5 -58.9 -106.9
Q -59.25 -106.7 -59.35 -106.2
L -60.9 -91.3 -61.05 -81.35 -60.65 -73.05 -58.9 -59.9 -57.6 -53.4
Q -57.5 -52.95 -57 -52.95
L -34.05 -53.9 -34 -53.95 -25.35 -104.5
Q -25.25 -105.1 -25.75 -105.4
L -30 -107.75 -30.75 -108.05 -31 -108.2 -32.55 -108.8 -32.8 -108.85 -33.8 -109.25 -34.6 -109.45 -34.85 -109.55 -35.65 -109.75 -35.9 -109.85 -39.9 -110.6 -41 -110.7 -41.25 -110.75 -41.55 -110.75 -42.05 -110.8 -46.45 -110.75 -46.7 -110.7 -47 -110.7 -50.75 -110.1
M -52.4 -107.6
L -52.3 -107.6 -48.55 -108.5 -48.3 -108.5 -47.55 -108.65 -47.3 -108.65 -46.8 -108.7 -46.55 -108.75 -46.3 -108.75 -45.75 -108.8 -42.2 -108.85 -41.7 -108.8 -41.4 -108.8 -37.1 -108.15 -34.65 -107.5 -34.4 -107.4 -34.15 -107.35 -33.65 -107.15 -33.4 -107.1 -29.4 -105.4 -27.2 -104.15 -34.15 -54.1 -56.55 -54.1 -58.95 -73.2 -59.1 -89.15 -57.5 -105.4 -52.75 -107.45 -52.55 -107.55 -52.4 -107.6 Z"/>
</g>

<g id="Symbol_3_0_Layer0_5_FILL">
<path fill="#000000" stroke="none" d="
M 1082.9 650.9
Q 1082.1 668.15 1085 686.3 1088 704.7 1094.15 719.2 1115 727.4 1136.25 717.9 1139.55 690.65 1134.75 660.7 1106.65 647.05 1082.9 650.9 Z"/>
</g>

<g id="Symbol_3_0_Layer0_5_STROKES_1_FILL">
<path fill="#FFFFFF" stroke="none" d="
M 1084 649.9
L 1083.6 650 1082.75 650.1
Q 1082.1 650.2 1082.1 650.8
L 1082.4 672.75 1082.8 677.1 1082.8 677.35 1083.9 685.8 1084 686.3 1084 686.45 1084.05 686.6 1087.25 701.9 1089.55 709.8 1093.2 719.55
Q 1093.35 719.95 1093.75 720.1
L 1100.3 722.25 1107.05 723.55 1114.65 723.9 1117.4 723.75 1117.75 723.7 1118.1 723.7 1126.9 722.1 1127.2 722 1127.55 721.95 1136.55 718.6
Q 1136.95 718.45 1137.05 717.95
L 1137.95 707.2 1137.6 682.05 1134.8 660.65 1134.75 660.6 1125.65 656.35 1112.9 652.05 1107.55 650.8 1096.25 649.4 1095.4 649.4 1095 649.35 1084 649.9
M 1083.6 651.5
L 1089.15 650.9 1097.85 650.8
Q 1098.15 650.85 1098.7 650.85
L 1108.6 652.1 1110.65 652.55 1111.05 652.6 1127 657.5 1134.65 660.75 1135.95 672.25 1136.95 696.85 1136.9 697.05 1136.7 703.55 1135.45 717.3 1133.1 718.25 1132.8 718.4 1128.35 719.9 1128.05 719.95 1127.1 720.25 1126.75 720.3 1126.45 720.4 1120.55 721.55
Q 1120.45 721.55 1117.9 721.85
L 1117.6 721.9 1111.95 722 1106 721.45 1099.5 720 1094.9 718.4 1094.4 717.3 1089.15 701.4 1085.95 686.3 1085.95 686.1 1085.9 686.05 1084.8 677.95 1084.7 677.45 1084.7 677.15 1084.65 676.9 1083.9 668.25 1083.6 651.5 Z"/>
</g>

<g id="Symbol_3_copy_0_Layer0_0_FILL">
<path fill="#F1BDB3" stroke="none" d="
M 1102.25 728.25
Q 1103.76171875 730.11875 1105.5 731.85 1117.65 744.05 1134.85 744.05 1152.05 744.05 1164.25 731.85 1173.9 722.2 1175.9 709.45 1175.9328125 709.2232421875 1175.95 709 1176.1466796875 705.5720703125 1176.4 702 1176.338671875 695.4080078125 1174.5 689.65 1171.5 680.4 1164.25 673.15 1152.05 660.9 1134.85 660.9 1117.65 660.9 1105.5 673.15 1093.5822265625 685.0189453125 1093.3 701.65 1096.03125 719.36953125 1102.25 728.25 Z"/>
</g>

<g id="Symbol_3_copy_0_Layer0_1_FILL">
<path fill="#000000" stroke="none" d="
M 46.75 97.5
Q 33.012109375 80.83203125 23.95 42.5 28.2888671875 -49.347265625 15.3 -165.55 -31.823828125 -168.244140625 -35.6 -150.8 -39.7654296875 -131.2005859375 -49.55 -68.95 -59.2943359375 -6.6505859375 -45.8 106 -46.1 114.1 -46.05 121.4 -45.95 139.45 -43.95 152.65 -41.2 170.35 -34.95 179.3 -33.5 181.1 -31.75 182.85 -19.6 195.05 -2.4 195.05 14.8 195.05 27 182.85 36.65 173.2 38.65 160.45 38.7 160.2 38.75 160 38.9 156.55 39.15 153 39.75 144.7 40.75 135.7 41.95 128.5 43.1 121.4 45.044140625 109.2486328125 46.75 97.5
M 58.7 -34.7
Q 57.56171875 -162.779296875 15.3 -165.55 28.2888671875 -49.347265625 23.95 42.5 33.012109375 80.83203125 46.75 97.5 57.4916015625 23.4287109375 58.7 -34.7 Z"/>
</g>

<g id="Symbol_3_copy_0_Layer0_1_STROKES_1_FILL">
<path fill="#FFFFFF" stroke="none" d="
M 15.25 -165.6
Q 15.1 -165.6 15.2 -165.5
L 21.55 -84.35 23.4 -42.5 23.45 -42.1 23.15 42.45 30.05 66.1 33.05 74 36.75 82.15 37 82.55 39.65 87.55 44.85 95.35 46.65 97.55
Q 46.75 97.65 46.8 97.55 46.9 97.5 46.8 97.4
L 42.75 91.7 38.85 84.75 32 68.4 29.95 62.2 24.7 42.5 26 -4.7 24.3 -68.2 20.4 -120.2 15.35 -165.55
Q 15.35 -165.7 15.25 -165.6 Z"/>
</g>

<g id="Symbol_3_copy_0_Layer0_2_FILL">
<path fill="#000000" stroke="none" d="
M 1091.8 645.4
L 1082.9 650.9
Q 1087.2041015625 650.20234375 1091.65 650.05 1091.391015625 665.1404296875 1093.9 680.8 1096.9 699.25 1103 713.75 1119.616796875 720.28515625 1136.5 715.55 1136.3921875 716.72578125 1136.25 717.9
L 1145.15 712.4
Q 1148.45 685.2 1143.6 655.2 1115.55 641.6 1091.8 645.4 Z"/>
</g>

<g id="Symbol_3_copy_0_Layer0_3_FILL">
<path fill="#000000" stroke="none" d="
M 1082.9 650.9
Q 1082.1 668.15 1085 686.3 1088 704.7 1094.15 719.2 1115 727.4 1136.25 717.9 1139.55 690.65 1134.75 660.7 1106.65 647.05 1082.9 650.9 Z"/>
</g>

<g id="Symbol_3_copy_0_Layer0_3_STROKES_1_FILL">
<path fill="#FFFFFF" stroke="none" d="
M 1084 649.9
L 1083.6 650 1082.75 650.1
Q 1082.1 650.2 1082.1 650.8
L 1082.4 672.75 1082.8 677.1 1082.8 677.35 1083.9 685.8 1084 686.3 1084 686.45 1084.05 686.6 1087.25 701.9 1089.55 709.8 1093.2 719.55
Q 1093.35 719.95 1093.75 720.1
L 1100.3 722.25 1107.05 723.55 1114.65 723.9 1117.4 723.75 1117.75 723.7 1118.1 723.7 1126.9 722.1 1127.2 722 1127.55 721.95 1136.55 718.6
Q 1136.95 718.45 1137.05 717.95
L 1137.95 707.2 1137.6 682.05 1134.8 660.65 1134.75 660.6 1125.65 656.35 1112.9 652.05 1107.55 650.8 1096.25 649.4 1095.4 649.4 1095 649.35 1084 649.9
M 1083.6 651.5
L 1089.15 650.9 1097.85 650.8
Q 1098.15 650.85 1098.7 650.85
L 1108.6 652.1 1110.65 652.55 1111.05 652.6 1127 657.5 1134.65 660.75 1135.95 672.25 1136.95 696.85 1136.9 697.05 1136.7 703.55 1135.45 717.3 1133.1 718.25 1132.8 718.4 1128.35 719.9 1128.05 719.95 1127.1 720.25 1126.75 720.3 1126.45 720.4 1120.55 721.55
Q 1120.45 721.55 1117.9 721.85
L 1117.6 721.9 1111.95 722 1106 721.45 1099.5 720 1094.9 718.4 1094.4 717.3 1089.15 701.4 1085.95 686.3 1085.95 686.1 1085.9 686.05 1084.8 677.95 1084.7 677.45 1084.7 677.15 1084.65 676.9 1083.9 668.25 1083.6 651.5 Z"/>
</g>

<g id="Symbol_3_copy_0_Layer0_4_FILL">
<path fill="#000000" stroke="none" d="
M 312.75 279.25
L 309.4 280 308.75 298.55 310.85 298.9
Q 312.45 289.8 312.75 279.25 Z"/>
</g>

<g id="Symbol_3_copy_0_Layer0_4_STROKES_1_FILL">
<path fill="#FFFFFF" stroke="none" d="
M 312.2 293.45
L 313.45 284.2 313.7 279.25
Q 313.75 278.85 313.45 278.55 313.15 278.25 312.75 278.25
L 312.5 278.25 309.15 279
Q 308.4 279.15 308.4 279.95
L 308.35 297.35 308.45 298.5 308.45 298.55
Q 308.45 298.8 308.7 298.8
L 309.2 298.85 309.45 298.9 310.8 298.95
Q 310.9 299.05 310.9 298.9
L 312.2 293.45
M 310.3 280.75
L 311.7 280.45 310.75 298.75 309.55 298.45 309.3 298.35 309 298.3 309.15 297.4 310.3 280.75 Z"/>
</g>

<g id="Symbol_3_copy_0_Layer0_5_FILL">
<path fill="#000000" stroke="none" d="
M 37.9 -106.25
Q 24.9 -112.2 9.15 -108.4 7.8 -81.9 4.95 -54.95 13.4 -53.3 28.6 -54.1 36.6 -80.9 37.9 -106.25 Z"/>
</g>

<g id="Symbol_3_copy_0_Layer0_5_STROKES_1_FILL">
<path fill="#FFFFFF" stroke="none" d="
M 8.9 -109.35
Q 8.15 -109.2 8.15 -108.45
L 4.35 -55 4.35 -54.95
Q 4.25 -54.45 4.8 -54.35
L 5.9 -54.15 15.2 -53.45 28.6 -54 28.65 -54.05 34.05 -73.25 34.1 -73.65 36.2 -83.85 38.8 -106.2
Q 38.8 -106.8 38.25 -107.05
L 34.8 -108.5 28.45 -110.2 27.95 -110.25 27.5 -110.35 26.55 -110.45 26.1 -110.55 24.7 -110.7 18.6 -110.8 10.7 -109.75 8.9 -109.35
M 10.05 -107.55
L 16.45 -108.65 25 -108.7 30.7 -107.7
Q 31.65 -107.55 32.45 -107.25
L 32.9 -107.15 36.9 -105.65 36.3 -96.8 36.3 -96.4 32.65 -71.85 28.5 -54.15 21.15 -54.1 7.2 -55.1 5.75 -55.35 5.55 -55.4 10.05 -107.55 Z"/>
</g>

<g id="Symbol_4_0_Layer0_0_FILL">
<path fill="#FFFFFF" stroke="none" d="
M -46.95 -57.4
Q -47.1 -57.4 -47.15 -57.4 -40 -11.7 -37.25 9.85 -33.45 39.7 -26.85 54.95 -24.8 56.35 -22.7 57.65 -21.8 57.3 -20.9 57 -28.2 41.8 -32.25 9.85 -35 -11.7 -42.2 -57.5 -44.6 -57.45 -46.95 -57.4
M -85.1 -31.05
Q -84 -29.05 -82.8 -26.8 -80.75 -35.4 -79.65 -55.9 -81.35 -55.75 -82.8 -55.5 -83.7 -39.7 -85.1 -31.05
M 18.9 -56.9
Q 17 -56.95 15.1 -57 19.9 -6.05 26.45 24.55 28.5 22.3 30.5 19.9 23.4 -11.9 18.9 -56.9 Z"/>

<path fill="#000000" stroke="none" d="
M -82.8 -55.5
Q -90.75 -54.15 -92.5 -51.1
L -94.3 -43.6
Q -95.75 -36.3 -97.1 -29 -91.3 -20.7 -75.4 7.95 -56.2 42.45 -26.3 56.1 -24.55 56.9 -22.7 57.65 -24.8 56.35 -26.85 54.95 -33.45 39.7 -37.25 9.85 -40 -11.7 -47.15 -57.4 -61.25 -57.05 -74.9 -56.3 -77.45 -56.15 -79.65 -55.9 -80.75 -35.4 -82.8 -26.8 -84 -29.05 -85.1 -31.05 -83.7 -39.7 -82.8 -55.5
M 74.65 -53.6
Q 46.05 -55.9 18.9 -56.9 23.4 -11.9 30.5 19.9 28.5 22.3 26.45 24.55 19.9 -6.05 15.1 -57 -14.15 -58 -41.7 -57.5 -41.95 -57.5 -42.2 -57.5 -35 -11.7 -32.25 9.85 -28.2 41.8 -20.9 57 -21.8 57.3 -22.7 57.65 -21.75 57.4 -20.85 57.15 16.65 46.8 39.6 19.45 76.9 -25.15 97.15 -28.25 96.4 -35.5 95.45 -42.35 93.2 -51.95 74.65 -53.6 Z"/>
</g>

<g id="Symbol_4_0_Layer0_1_STROKES_1_FILL">
<path fill="#FFFFFF" stroke="none" d="
M 65.2 -9.1
Q 62 -6.15 58.45 -2.55
L 45.55 11.1 39.05 18.7 27.25 30.75 26.35 31.5
Q 22.25 35 19.05 37.25 15.6 39.8 11.3 42.4 7.2 44.85 3.15 46.9 -1.2 49.1 -5.25 50.75 -9.05 52.3 -14 54
L -16.5 54.8 -16.75 54.9 -20.7 56.05 -20.95 56.15 -21.1 56.15 -22.65 56.55 -25.85 55.2 -26 55.1 -27.25 54.5 -27.7 54.35 -32.05 52.05
Q -33.45 51.3 -33.65 51.15
L -41.25 46.3
Q -43.65 44.6 -46.95 41.9
L -52.35 37.05
Q -54.1 35.4 -57.4 31.9
L -61.7 26.9 -61.8 26.75 -65.4 22.05
Q -65.8 21.6 -66.5 20.6
L -67 19.85 -67.15 19.7 -67.25 19.5 -69.8 15.75 -85.2 -10.55 -96.75 -29.05 -96.75 -28.9 -96.8 -29.15 -96.75 -29.05 -94.2 -43.55
Q -94.1 -43.65 -94.25 -43.65 -94.35 -43.75 -94.35 -43.6
L -97.4 -29.05 -97.35 -28.8
Q -96.2 -27.15 -93.45 -22.65
L -72.8 13.85 -68.6 20.4 -68.45 20.6 -68.3 20.75 -63.4 27.45
Q -60.7 30.85 -58.7 33.05 -56.4 35.65 -53.6 38.35
L -52.6 39.3 -52.3 39.65 -48.15 43.3
Q -45.7 45.45 -42.35 47.85
L -37 51.45 -23.05 58.55
Q -22.75 58.7 -22.4 58.6
L -20.7 58.1 -20.6 58.1 -13.35 55.9
Q -8.85 54.4 -4.5 52.6 0.1 50.7 4.05 48.65 8.05 46.65 12.35 44.1 16.7 41.4 20.2 38.85 24.05 36 27.6 32.95
L 34.25 26.65 53.05 5.2 66.1 -8.15
Q 70.7 -12.35 73.1 -14.35 73.95 -15.1 76.7 -17.3
L 84.35 -22.65 87.4 -24.4 87.65 -24.5 87.9 -24.65 88.45 -24.9
Q 89.6 -25.5 90.55 -25.9
L 92.7 -26.75
Q 94.85 -27.5 97.15 -27.95
L 97.2 -27.95
Q 97.5 -27.95 97.4 -28.25
L 95.5 -42.35
Q 95.5 -42.5 95.4 -42.4 95.25 -42.4 95.35 -42.3
L 96.8 -28.5
Q 95.727734375 -28.3166015625 94.75 -28.05 93.9 -27.85 92.45 -27.4
L 88.05 -25.65
Q 83.95 -23.7 79.9 -20.9 78.8 -20.2 76.05 -18.2
L 72.35 -15.3
Q 68.25 -11.95 65.2 -9.1 Z"/>
</g>

<g id="Symbol_5_0_Layer0_0_FILL">
<path fill="#FFFFFF" stroke="none" d="
M -57.9 -15.65
Q -59.3 -15.6 -60.75 -15.55 -75.25 82.5 -61.6 170.05 -60.2 170.1 -58.8 170.2 -57.75 170.2 -56.7 170.3 -70.3 82.45 -55.85 -15.65 -56.7 -15.65 -57.5 -15.65 -57.7 -15.65 -57.9 -15.65
M -43.55 -88.9
L -48.4 -89.25
Q -57.15 -53.2 -62.4 -18.55 -61.35 -18.6 -60.3 -18.65 -58.9 -18.7 -57.5 -18.7 -52.25 -53.15 -43.55 -88.9
M -107.5 -10
Q -108.55 -9.8 -109.6 -9.6 -109.7 -9.6 -109.75 -9.6 -110.5 -9.45 -111.4 -9.2 -109.6 19.25 -105.65 48.8 -95.75 122.8 -100.45 166.1 -99.55 166.3 -98.5 166.5 -97.6 166.65 -96.55 166.85 -91.65 123.8 -101.65 48.8 -105.65 18.85 -107.5 -10
M -109 -112.55
Q -111.1 -111.8 -113.1 -110.85 -116.7 -65.05 -113.95 -15.95 -113.4 -14.05 -112.85 -12 -112.25 -12.15 -111.6 -12.25 -110.7 -12.45 -109.75 -12.65 -112.9 -64.4 -109 -112.55
M 9.5 -10.75
Q 8.25 -10.25 6.75 -9.5 6.65 -9.05 6.6 -8.7 -9.45 64.5 -0.35 171.5 0.75 171.5 1.85 171.5 2.9 171.5 3.95 171.5 -5.25 62.6 11.6 -11.15 11.65 -11.4 11.75 -11.75 10.95 -11.45 10.2 -11.1 9.85 -10.95 9.5 -10.75
M 50.55 -103.7
Q 48.8 -104.45 47 -105.2 18.25 -69.1 5.2 -11.85 6.35 -12.4 7.5 -12.95 8.85 -13.55 10.2 -14.15 23.1 -68.7 50.55 -103.7
M 19.25 -129.35
L 2.9 -125.35 -27.05 -92.45 -67.2 -94.55 -72.3 -129.95 -81.05 -135.15 -72.05 -92.4 -21.85 -88.75 19.25 -129.35 Z"/>

<path fill="#E1E1E1" stroke="none" d="
M -57.5 -18.7
Q -58.9 -18.7 -60.3 -18.65 -60.5 -17.25 -60.7 -15.85 -60.7 -15.7 -60.75 -15.55 -59.3 -15.6 -57.9 -15.65 -57.7 -15.65 -57.5 -15.65 -56.7 -15.65 -55.85 -15.65 -55.85 -15.85 -55.8 -16.05 -55.6 -17.35 -55.4 -18.7 -56.45 -18.7 -57.5 -18.7
M -107.6 -13.1
Q -108.7 -12.9 -109.75 -12.65 -110.7 -12.45 -111.6 -12.25 -111.55 -10.75 -111.4 -9.2 -110.5 -9.45 -109.75 -9.6 -109.7 -9.6 -109.6 -9.6 -108.55 -9.8 -107.5 -10 -107.55 -10.9 -107.6 -13.1
M 12.7 -15.25
Q 11.45 -14.75 10.2 -14.15 8.85 -13.55 7.5 -12.95 7 -10.75 6.75 -9.5 8.25 -10.25 9.5 -10.75 9.85 -10.95 10.2 -11.1 10.95 -11.45 11.75 -11.75 12 -12.95 12.7 -15.25 Z"/>

<path fill="#000000" stroke="none" d="
M -62.4 -15.5
Q -62.6 -15.5 -62.8 -15.45 -84.6 -14.7 -107.5 -10 -105.65 18.85 -101.65 48.8 -91.65 123.8 -96.55 166.85 -85.15 168.8 -63.7 169.95 -62.65 170 -61.6 170.05 -75.25 82.5 -60.75 -15.55 -61.55 -15.55 -62.4 -15.5
M -111.4 -9.2
Q -112.4 -8.95 -113.55 -8.6 -118.15 -23.85 -124.85 -34.45 -119.55 3.45 -112.6 43.55 -99.6 118.25 -109 162.5 -107.7 164.2 -102.4 165.6 -101.5 165.85 -100.45 166.1 -95.75 122.8 -105.65 48.8 -109.6 19.25 -111.4 -9.2
M 11.75 -11.75
Q 11.65 -11.4 11.6 -11.15 -5.25 62.6 3.95 171.5 37.9 171.65 81.95 170.95 86.65 157.7 82.6 138.2 82.85 131.8 83.25 125.45 87.25 63.1 107.9 5.3 112.95 -8.95 117.15 -23.15 96.35 -27.3 76.1 -26.65 76 -26.65 75.85 -26.65
L 75.8 -26.65
Q 43.1 -25.5 11.75 -11.75
M 6.6 -8.7
Q 6.65 -9.05 6.75 -9.5 5.7 -8.95 4.5 -8.3 -24.55 -16 -55.85 -15.65 -70.3 82.45 -56.7 170.3 -34.35 171.25 -2.45 171.5 -1.4 171.5 -0.35 171.5 -9.45 64.5 6.6 -8.7
M 135.4 -122.35
Q 135.8 -130.8 121.85 -137.4
L 78.65 -157.95
Q 75.7 -158.6 72.65 -158.5 72.35 -158.5 72.05 -158.5 18.1 -183.1 -73.35 -161.25 -76.75 -160.45 -80.2 -159.55
L -120.55 -143.4
Q -141.45 -118.55 -132.8 -98.5 -129.7 -69.65 -125.55 -39.45 -118.35 -30.6 -113.95 -15.95 -116.7 -65.05 -113.1 -110.85 -111.1 -111.8 -109 -112.55 -112.9 -64.4 -109.75 -12.65 -108.7 -12.9 -107.6 -13.1 -84.4 -17.75 -62.4 -18.55 -57.15 -53.2 -48.4 -89.25
L -43.55 -88.9
Q -52.25 -53.15 -57.5 -18.7 -56.45 -18.7 -55.4 -18.7 -24.35 -19 4.25 -11.4 4.7 -11.6 5.2 -11.85 18.25 -69.1 47 -105.2 48.8 -104.45 50.55 -103.7 23.1 -68.7 10.2 -14.15 11.45 -14.75 12.7 -15.25 43.75 -28.65 76.1 -29.7 96.75 -30.35 118 -26.05 124.45 -48.6 128.7 -71.15 133.5 -96.75 135.4 -122.35
M 2.9 -125.35
L 19.25 -129.35 -21.85 -88.75 -72.05 -92.4 -81.05 -135.15 -72.3 -129.95 -67.2 -94.55 -27.05 -92.45 2.9 -125.35 Z"/>

<path fill="#252525" stroke="none" d="
M -107.6 -13.1
Q -107.55 -10.9 -107.5 -10 -84.6 -14.7 -62.8 -15.45 -62.6 -15.5 -62.4 -15.5 -61.55 -15.55 -60.75 -15.55 -60.7 -15.7 -60.7 -15.85 -60.5 -17.25 -60.3 -18.65 -61.35 -18.6 -62.4 -18.55 -84.4 -17.75 -107.6 -13.1
M -125.1 -36.25
Q -125 -35.35 -124.85 -34.45 -118.15 -23.85 -113.55 -8.6 -112.4 -8.95 -111.4 -9.2 -111.55 -10.75 -111.6 -12.25 -112.25 -12.15 -112.85 -12 -113.4 -14.05 -113.95 -15.95 -118.35 -30.6 -125.55 -39.45 -125.35 -37.85 -125.1 -36.25
M 12.7 -15.25
Q 12 -12.95 11.75 -11.75 43.1 -25.5 75.8 -26.65
L 75.85 -26.65
Q 76 -26.65 76.1 -26.65 96.35 -27.3 117.15 -23.15 117.2 -23.35 117.25 -23.55 117.6 -24.8 118 -26.05 96.75 -30.35 76.1 -29.7 43.75 -28.65 12.7 -15.25
M 4.5 -8.3
Q 5.7 -8.95 6.75 -9.5 7 -10.75 7.5 -12.95 6.35 -12.4 5.2 -11.85 4.7 -11.6 4.25 -11.4 -24.35 -19 -55.4 -18.7 -55.6 -17.35 -55.8 -16.05 -55.85 -15.85 -55.85 -15.65 -24.55 -16 4.5 -8.3 Z"/>
</g>

<g id="Symbol_5_0_Layer0_1_STROKES_1_FILL">
<path fill="#FFFFFF" stroke="none" d="
M 75.1 -27.1
L 75.1 -27 75.05 -26.8 75.05 -26.7 73.65 -17.05 73.2 -15.05
Q 73.1 -14.6 73.05 -14.35
L 71.55 -9.05 71.15 -8.1 71.1 -7.95 71.1 -7.9 70.35 -6.3 70.15 -6 69.95 -5.65 70.2 -5.75 69.85 -5.4 69.95 -5.65 57.6 0.05 57.4 0.1 57.3 0.2 57.2 0.2 55.8 0.95 55.6 1 55.45 1.1 51.9 3.1 45.65 7.5 45.2 7.9 45 8 43.8 9.05 43.45 9.3 35.55 16.65 29.1 23.8
Q 28.9 24.1 28.9 24.3
L 27.3 40.55 26.2 56.85 26.15 57.1 25.3 90.5 26.85 130.3 29.2 154.65
Q 29.25 154.9 29.45 155.1 29.7 155.3 29.95 155.25
L 30.15 155.2 61.25 140.5 74.5 132.85
Q 76.25 131.7 77.6 130.6 79.2 129.5 80.6 128.2 82.05 126.95 83.3 125.5 83.4 125.45 83.3 125.35 83.25 125.3 83.15 125.35 82.1 126.5 80.4 127.95 79.4 128.8 77.4 130.3 74.55 132.35 71 134.4
L 62.6 138.95 50.95 144.4 50.5 144.55 30.45 153.55 28.45 130.15 27.2 89.5 27.75 65.1 30.8 24.85 30.65 25.05 30.85 24.55 30.8 24.85 35.85 19.15
Q 36.25 18.8 36.95 18
L 40.9 14.15 41.15 13.85 46.2 9.5 46.35 9.35 46.5 9.25 48.7 7.55 55.9 2.9 56.25 2.75 56.4 2.65 58.1 1.8 58.15 1.8 58.2 1.75 58.35 1.65 70.95 -4.2
Q 71.25 -4.4 71.3 -4.55
L 71.65 -5.2 71.85 -5.5 72.65 -7.25 72.65 -7.35 73.55 -9.85 75.2 -16.75 76.5 -26.55 76.5 -26.45 76.75 -29.25 87.2 -34.7 101.95 -44.15
Q 104.9 -46.3 105.35 -46.7
L 108.65 -49.35 109.1 -49.65 120.25 -60.25 128.75 -71.05
Q 128.9 -71.2 128.75 -71.2 128.7 -71.25 128.6 -71.2
L 125.25 -66.75 119.1 -59.85 118.9 -59.7 118.75 -59.5 113.4 -54.4 98.75 -43.2 85.15 -35.1 75.75 -30.3
Q 75.45 -30.15 75.35 -29.75
L 75.1 -27.1 Z"/>
</g>

<g id="Symbol_5_0_Layer0_2_STROKES_1_FILL">
<path fill="#FFFFFF" stroke="none" d="
M -75.35 -157.6
L -73.25 -161.15
Q -73.1 -161.3 -73.3 -161.3 -73.3 -161.35 -73.4 -161.3
L -75.8 -157.9
Q -77.3 -155.7 -78.4 -153.85 -79.8 -151.65 -81.5 -148.45
L -82.85 -145.65 -83 -145.2
Q -84 -142.9 -84.45 -141.65 -85.2 -139.4 -85.55 -137.7
L -86.2 -133.45 -86.2 -131.45 -86.15 -131.2 -86.15 -130.65 -86.1 -130.6 -86.05 -130.05 -86.05 -129.9 -86 -129.75 -86 -129.5 -85.8 -127.9 -85.8 -127.65 -85.75 -127.4 -85.75 -126.85
Q -85.65 -125.8 -85.75 -124.75 -85.85 -123.4 -86 -122.65
L -86.1 -122.15 -86.2 -121.9 -86.25 -121.65 -86.45 -121.2 -86.45 -121.1 -86.5 -121.1 -86.5 -121 -86.65 -120.75 -86.65 -120.65 -86.75 -120.55 -86.85 -120.35 -87.1 -119.95 -87.9 -119.05 -88.1 -118.9 -88.3 -118.8 -88.9 -118.4 -89.35 -118.2 -89.55 -118.15 -89.65 -118.1 -89.8 -118.05 -90.75 -117.85 -90.85 -117.8 -91 -117.8 -100.25 -116.2 -109.55 -113.25 -113.3 -111.6 -113.35 -111.55 -113.4 -111.55 -116.8 -109.9 -125.9 -104.2
Q -127.4 -103.15 -129.7 -101.3
L -132.85 -98.55
Q -132.9 -98.45 -132.85 -98.4 -132.75 -98.3 -132.7 -98.4
L -120.1 -106.6 -112.9 -110.05 -112.75 -110.1 -112.65 -110.15 -107.5 -112.15 -99.8 -114.35 -91.05 -115.8 -90.75 -115.8 -90.65 -115.85 -90.45 -115.85 -90.15 -115.9 -88.6 -116.35 -88.3 -116.5 -88.15 -116.55 -88 -116.65 -87.4 -116.95 -87 -117.25 -86.9 -117.35 -86.35 -117.75 -85.5 -118.75 -85.15 -119.3 -85 -119.6 -84.9 -119.75 -84.85 -119.85 -84.85 -119.9 -84.45 -120.75 -84.4 -121.05 -84.05 -122.25
Q -83.9 -123.05 -83.8 -124.65
L -83.85 -127.5 -83.9 -127.8 -83.9 -128.1 -84.2 -130.05 -84.2 -130.3 -84.3 -130.85 -84.3 -131.1 -84.35 -131.35 -84.35 -131.85 -84.4 -132.1 -84.4 -133.35
Q -84.35 -135.1 -83.9 -137.35 -83.45 -139.6 -82.95 -141.15 -82.5 -142.7 -81.7 -144.65 -81.15 -146.2 -80.35 -147.9
L -77.65 -153.4
Q -76.9 -154.85 -75.35 -157.6 Z"/>
</g>

<g id="Symbol_5_0_Layer0_3_STROKES_1_FILL">
<path fill="#FFFFFF" stroke="none" d="
M 115.65 -127.35
Q 113.35 -126.6 111.65 -125.8 109.65 -124.85 107.85 -123.8 106.25 -122.85 104.25 -121.45 103.1 -120.65 100.9 -118.85 98.7 -117.05 97.65 -116.05
L 92.35 -110.85 91.65 -110.05
Q 90.35 -108.75 88.75 -106.9
L 80.75 -97.05 80.7 -96.95
Q 80.1 -96 79.55 -95.45
L 78.9 -94.8 78.2 -94.3 77.4 -93.9 75.7 -93.6 74.8 -93.7 74.6 -93.7 74.35 -93.75 74.25 -93.8 74.15 -93.8 73.55 -94 73.45 -94 73.25 -94.1 72.55 -94.35 50.95 -104.6 50.8 -104.65 27.05 -114.35 26.95 -114.35 26.8 -114.4 26.6 -114.5
Q 25.85 -114.9 25.75 -114.95
L 25.4 -115.15 25.2 -115.3 25.1 -115.35 25.05 -115.45
Q 24.9 -115.5 24.7 -115.7
L 24.6 -115.85 24.45 -116 24.1 -116.65 24.05 -116.8 24.05 -116.9 24 -116.9 24 -117.2 23.95 -117.4 24.05 -118.2 24.35 -119
Q 24.55 -119.45 24.8 -119.8
L 24.95 -120.1 25.05 -120.2 25.1 -120.3 25.2 -120.4 27.75 -123.95
Q 31.05 -128.35 32.8 -130.5
L 43.8 -142.75
Q 47.5 -146.25 49.95 -148.2 51 -149.1 53.2 -150.7
L 56.65 -153
Q 60.5 -155.3 64 -156.6
L 65.95 -157.25 72.05 -158.4
Q 72.2 -158.4 72.1 -158.5 72.1 -158.65 72 -158.55
L 67.9 -158.15 63.35 -156.95 62.35 -156.6 56.25 -153.7
Q 54.25 -152.6 52.7 -151.5 51.05 -150.4 49.3 -149.05
L 42.95 -143.65
Q 39.9 -140.8 37.05 -137.75 34.3 -134.75 31.55 -131.5
L 28.95 -128.25
Q 27.7 -126.8 26.4 -125
L 23.75 -121.45 23.65 -121.35 23.6 -121.25 23.5 -121.1 23.4 -121 22.7 -119.75 22.3 -118.6
Q 22.15 -118 22.15 -117.35
L 22.15 -116.95 22.2 -116.85 22.2 -116.6 22.35 -116.05
Q 22.6 -115.35 23 -114.9
L 23.1 -114.75 23.2 -114.65 23.4 -114.4 23.95 -113.9 24.8 -113.3 26.3 -112.6 26.35 -112.55 26.85 -112.4 49.8 -102.9 50 -102.8 50.15 -102.75 62.95 -96.9
Q 64.5 -96.2 66.65 -95.1
L 70.8 -93.05 70.95 -93 71.3 -92.8 72.35 -92.35 72.6 -92.3 73.4 -92 73.7 -91.95 73.8 -91.9 73.95 -91.9 75.7 -91.7
Q 76.3 -91.7 76.9 -91.85 77.55 -91.95 78.05 -92.15
L 79.15 -92.7 80.1 -93.35 80.95 -94.2
Q 81.7068359375 -95.0513671875 82.2 -95.9
L 93.15 -109.35 98.65 -115
Q 101.2 -117.35 101.8 -117.8 103.6 -119.35 105.05 -120.4 106.7 -121.65 108.5 -122.8
L 112.1 -124.85
Q 113.75 -125.65 115.95 -126.4
L 117.95 -126.95 118.2 -127 118.35 -127.05 118.45 -127.05 118.95 -127.15 119.1 -127.2 119.2 -127.2 119.75 -127.3 120 -127.3 120.5 -127.4 120.75 -127.4 121 -127.45
Q 121.7 -127.45 122.05 -127.5
L 124.4 -127.4 124.9 -127.3 125.15 -127.3 127.2 -126.85 127.9 -126.6 128.15 -126.55
Q 129.8 -126 131.95 -124.75 132.75 -124.25 133.65 -123.55 134 -123.35 135.3 -122.25 135.4 -122.15 135.45 -122.25 135.55 -122.3 135.45 -122.4 133.8 -124 132.15 -125.05
L 131 -125.8 130.3 -126.15
Q 129.2 -126.75 128.35 -127.05
L 126.55 -127.65 126.05 -127.75 125.8 -127.85 125.25 -127.95 125.15 -127.95 125 -128 124.45 -128.1 124.2 -128.1 123.1 -128.2 122.85 -128.25 120.7 -128.25 120.45 -128.2 119.6 -128.15 119.1 -128.05 118.8 -128.05 118.3 -127.95 118.15 -127.9 118 -127.9 115.65 -127.35 Z"/>
</g>

<g id="Layer4_12_MEMBER_0_MEMBER_0_FILL">
<path fill="#000000" stroke="none" d="
M 553.35 142.5
Q 541.55 142.9 530.9 147.95 520.1 153.2 512.55 159.6 505.05 165.95 506.7 181.5 508.35 196.95 499.55 215.35
L 489.7 220.3
Q 494.75 233.05 504.6 242.75 514.6 252.55 527.2 257.15 565.1 249.1 594.8 228.85 602.7 223.45 605.65 221.95 612.25 218.7 618.25 219.35 619.1 218.15 619.35 216.9 607.7 206.95 599.1 205.25 593.9 193.65 597.55 174.75 601.15 155.95 599.4 145.7 597.55 135.4 582.6 138.8 567.6 142.15 553.35 142.5 Z"/>
</g>

<g id="Layer4_12_MEMBER_0_MEMBER_1_FILL">
<path fill="#FFFFFF" stroke="none" d="
M 291.8 216.05
Q 298 213.65 303.5 210.6 308.95 207.6 314.3 203.5
L 323.9 194.9 313.6 202.5
Q 308.3 206.05 302.65 208.95 296.5 212.15 291.1 214.2 284.96171875 216.5080078125 279.2 217.95 276.886328125 216.894140625 274.65 215.45 272.15 213.85 270.2 212.1 267.95 210.1 266.3 208.1 264.5 205.95 263 203.45 264.15 206.1 265.8 208.45 267.45 211 269.45 212.9 271.4 214.9 273.8 216.7 276.7 218.7 278.85 219.65
L 279.1 219.8 279.4 219.7
Q 285.9 218.3 291.8 216.05 Z"/>
</g>

<g id="Layer4_12_MEMBER_0_MEMBER_2_FILL">
<path fill="#000000" stroke="none" d="
M 278 209.2
Q 278.25 211.05 279.8 211.55 281.4 212.05 282.65 210.7 283.25 210.1 283.45 209.25 283.6 208.4 283.3 207.65 283 206.85 282.25 206.35 281.5 205.85 280.7 205.9 279.55 206 278.8 206.8 277.85 207.75 278 209.2 Z"/>
</g>

<g id="Layer4_12_MEMBER_0_MEMBER_3_STROKES_1_FILL">
<path fill="#FFFFFF" stroke="none" d="
M 615.1 219.05
Q 613.35 219.15 612 219.4 610.35 219.7 608.9 220.15 607.1 220.8 606 221.3
L 605.6 221.45 605.45 221.55 600.5 224.35
Q 599.4 225 595.25 227.75
L 578.6 237.65 562.8 245.05 562.65 245.15 562.45 245.2 554.5 248.3 554.15 248.4 553.8 248.55 545.35 251.4 531.9 255.1 531.5 255.15 527.2 256.15 520.6 253.3 515.85 250.65 515.7 250.55 515.5 250.45 513.1 248.8 512.9 248.7 511.7 247.85 511.55 247.7 511.4 247.6 509.05 245.8 508.9 245.65 508.75 245.55 506.2 243.35 499.3 236.05 494.45 229.2 489.75 220.25
Q 489.75 220.1 489.65 220.2 489.5 220.2 489.6 220.3
L 493.8 229.55 499.5 238.05 506.5 245.5 509.1 247.75 509.25 247.9 514.8 251.95 515 252.05 516.05 252.75 516.45 252.95 516.8 253.2 517.55 253.6 517.9 253.85 526.85 258
Q 527.2 258.1 527.35 258.05
L 545.95 253.3 546.3 253.15 550 251.95 550.4 251.85 554.45 250.4 554.85 250.3 563.2 247 563.4 246.95 563.55 246.85 564.65 246.4 580.1 238.8 587.5 234.45 605.8 222.3 609.15 220.8
Q 610.5 220.3 612.1 219.9 614.1 219.5 615.15 219.45
L 618.2 219.4
Q 618.3 219.5 618.3 219.35
L 618.25 219.25 616.7 219.1
Q 616.4 219.05 615.9 219.05
L 615.1 219.05 Z"/>
</g>

<g id="Symbol_9_copy_0_Layer1_0_FILL">
<path fill="#000000" stroke="none" d="
M 33.65 -16.7
L 17.7 -16.7 17.7 14.45 33.65 14.45 33.65 -16.7 Z"/>
</g>

<g id="Symbol_9_copy_0_Layer1_0_STROKES_1_FILL">
<path fill="#FFFFFF" stroke="none" d="
M 33.65 -17
L 17.7 -16.8 17.6 -16.7 17.2 14.4
Q 17.2 14.9 17.65 14.9
L 33.6 14.9
Q 34.1 15 34.1 14.45
L 33.95 -16.7
Q 33.95 -17 33.65 -17
M 17.8 -16.55
L 33.3 -16.35 33.15 13.95 18.15 13.95 17.8 -16.55 Z"/>
</g>

<g id="Symbol_9_copy_0_Layer0_0_FILL">
<path fill="#000000" stroke="none" d="
M 792.4 128.5
Q 785.55 128.5 780.65 133.35 775.8 138.25 775.8 145.1
L 775.8 193.45
Q 775.8 200.3 780.65 205.15 785.55 210.05 792.4 210.05
L 792.45 210.05
Q 799.3 210.05 804.15 205.15 809.05 200.3 809.05 193.45
L 809.05 145.1
Q 809.05 138.25 804.15 133.35 799.3 128.5 792.45 128.5
L 792.4 128.5 Z"/>
</g>

<g id="Symbol_9_copy_0_Layer0_1_FILL">
<path fill="#000000" stroke="none" d="
M 815.45 145.1
Q 815.45 138.25 810.55 133.35 805.7 128.5 798.85 128.5
L 798.8 128.5
Q 791.95 128.5 787.05 133.35 782.2 138.25 782.2 145.1
L 782.2 193.45
Q 782.2 200.3 787.05 205.15 791.95 210.05 798.8 210.05
L 798.85 210.05
Q 805.7 210.05 810.55 205.15 815.45 200.3 815.45 193.45
L 815.45 145.1 Z"/>
</g>

<g id="Symbol_9_copy_0_Layer0_2_STROKES_1_FILL">
<path fill="#FFFFFF" stroke="none" d="
M 800.2 129.9
L 799.9 129.8 799.75 129.7 797.85 129 797.55 128.95 797.3 128.85 796.75 128.75 796.5 128.65 796.25 128.65 795.8 128.55 792.7 128.35 792.45 128.4
Q 792.35 128.4 792.35 128.5
L 792.4 128.55 792.7 128.6 793.05 128.6 793.3 128.65 793.55 128.65
Q 795.4 128.9 796.65 129.25
L 798.7 130.05
Q 800 130.65 801 131.35 802.3 132.3 803.25 133.25
L 803.7 133.65 803.7 133.7 803.75 133.7 803.8 133.8 804.25 134.25 804.3 134.35 804.35 134.4 804.6 134.75 804.9 135.05 805.4 135.75
Q 806.25 136.9 807.1 138.8 807.75 140.4 808.05 142.4
L 808.1 142.65 808.1 142.9 808.15 143.4 808.15 143.65 808.2 143.9 808.2 194.6 808.15 194.85 808.15 195.1 808.1 195.6 808.1 195.8 808.05 196.05
Q 807.75 198.1 807.1 199.65 806.35 201.35 805.4 202.75
L 805.15 203.1 804.85 203.4 804.75 203.6 803.8 204.65 803.75 204.75 803.65 204.8 803.25 205.25
Q 801.95 206.45 800.95 207.15 799.7 208 798.7 208.45
L 798.15 208.65 797.9 208.8 797.4 209 797.15 209.05 796.65 209.25
Q 795.4 209.6 793.55 209.85
L 793.3 209.85 793.05 209.9 792.7 209.9 792.45 209.95 792.4 209.95
Q 792.25 209.95 792.35 210.05
L 792.45 210.15 795.8 209.95 797.3 209.65 797.55 209.55 797.85 209.5 799.75 208.8 799.9 208.7 800.85 208.25 801.45 207.85
Q 802.8 207.05 804 206
L 804.45 205.6 804.5 205.5 804.6 205.45 805.65 204.35 805.7 204.25 805.8 204.2 806.35 203.5
Q 807.45 202.15 808.35 200.25
L 809.1 198.35 809.6 196.3 809.6 196.05 809.75 195.25 809.75 194.95 809.8 194.7 809.85 144.85 809.8 143.75 809.75 143.5 809.75 143.25 809.55 142.2 809.5 141.65 809.1 140.15 808.35 138.25
Q 807.5 136.4 806.4 135
L 805.8 134.3 805.75 134.2 805.2 133.65 805.15 133.55 804.6 133.05 804.55 132.95 804.5 132.95 804.5 132.9 804.45 132.9 804 132.45
Q 802.5 131.25 801.45 130.6
L 801.15 130.4 800.5 130.1 800.2 129.9 Z"/>
</g>

<g id="Symbol_9_copy_0_Layer0_4_STROKES_1_FILL">
<path fill="#FFFFFF" stroke="none" d="
M 800.2 129.9
L 799.9 129.8 799.75 129.7 797.85 129 797.55 128.95 797.3 128.85 796.75 128.75 796.5 128.65 796.25 128.65 795.8 128.55 792.7 128.35 792.45 128.4
Q 792.35 128.4 792.35 128.5
L 792.4 128.55 792.7 128.6 793.05 128.6 793.3 128.65 793.55 128.65
Q 795.4 128.9 796.65 129.25
L 798.7 130.05
Q 800 130.65 801 131.35 802.3 132.3 803.25 133.25
L 803.7 133.65 803.7 133.7 803.75 133.7 803.8 133.8 804.25 134.25 804.3 134.35 804.35 134.4 804.6 134.75 804.9 135.05 805.4 135.75
Q 806.25 136.9 807.1 138.8 807.75 140.4 808.05 142.4
L 808.1 142.65 808.1 142.9 808.15 143.4 808.15 143.65 808.2 143.9 808.2 194.6 808.15 194.85 808.15 195.1 808.1 195.6 808.1 195.8 808.05 196.05
Q 807.75 198.1 807.1 199.65 806.35 201.35 805.4 202.75
L 805.15 203.1 804.85 203.4 804.75 203.6 803.8 204.65 803.75 204.75 803.65 204.8 803.25 205.25
Q 801.95 206.45 800.95 207.15 799.7 208 798.7 208.45
L 798.15 208.65 797.9 208.8 797.4 209 797.15 209.05 796.65 209.25
Q 795.4 209.6 793.55 209.85
L 793.3 209.85 793.05 209.9 792.7 209.9 792.45 209.95 792.4 209.95
Q 792.25 209.95 792.35 210.05
L 792.45 210.15 795.8 209.95 797.3 209.65 797.55 209.55 797.85 209.5 799.75 208.8 799.9 208.7 800.85 208.25 801.45 207.85
Q 802.8 207.05 804 206
L 804.45 205.6 804.5 205.5 804.6 205.45 805.65 204.35 805.7 204.25 805.8 204.2 806.35 203.5
Q 807.45 202.15 808.35 200.25
L 809.1 198.35 809.6 196.3 809.6 196.05 809.75 195.25 809.75 194.95 809.8 194.7 809.85 144.85 809.8 143.75 809.75 143.5 809.75 143.25 809.55 142.2 809.5 141.65 809.1 140.15 808.35 138.25
Q 807.5 136.4 806.4 135
L 805.8 134.3 805.75 134.2 805.2 133.65 805.15 133.55 804.6 133.05 804.55 132.95 804.5 132.95 804.5 132.9 804.45 132.9 804 132.45
Q 802.5 131.25 801.45 130.6
L 801.15 130.4 800.5 130.1 800.2 129.9 Z"/>
</g>

<g id="Layer4_12_MEMBER_2_FILL">
<path fill="#FFFFFF" stroke="none" d="
M 557.3 85.85
Q 506.5 56.5 491.1 77.75 488.1 81.55 485.1 89.35 466.75 141.8 477.2 171.5 478.35 174.9 479.9 178 478.15 194.05 497.1 195.7 522.15 197.25 546.6 174.2
L 546.6 167.9
Q 562.75 149.65 577.9 127
L 579.95 126.45 582.8 126.45 587.4 118.4
Q 578.15 98.1 557.3 85.85 Z"/>

<path fill="#000000" stroke="none" d="
M 606.5 77.2
Q 599.6 67.9 589 60.75 534.8 27.1 491.8 71.2 483.85 76.35 485.1 89.35 488.1 81.55 491.1 77.75 506.5 56.5 557.3 85.85 578.15 98.1 587.4 118.4
L 582.8 126.45 579.95 126.45 577.9 127
Q 562.75 149.65 546.6 167.9
L 546.6 174.2
Q 522.15 197.25 497.1 195.7 478.15 194.05 479.9 178 478.35 174.9 477.2 171.5 473.45 194.45 480.4 200.6 481.55 202.85 484.15 206.2 485.35 207.8 486.85 209.7 492.2 216.35 511.75 218.3 514.6 218.6 517.75 218.8 551.5 221.35 599.85 163.2
L 608.1 163.2
Q 612.75 163.4 615.95 146.55 621.8 121.1 617.5 101.6 614.5 87.95 606.5 77.2 Z"/>
</g>

<g id="Layer4_12_MEMBER_3_STROKES_1_FILL">
<path fill="#FFFFFF" stroke="none" d="
M 562.15 190.6
L 562.6 190.1
Q 565.15 187.35 567.55 184.4 573 177.7 577.1 172.4 587.7 158.75 594.95 148.1 599.5 141.4 602.5 136.4 605.9 131 608.7 125.6 610.25 122.65 611.2 120.65 612.35 118.25 613.25 116.1 615.05 111.85 616.05 108.5
L 617.3 103.4 617.3 103.2 617.35 103 617.55 101.6
Q 617.65 101.5 617.5 101.5 617.4 101.4 617.4 101.55
L 617.15 102.95 615.7 108.4
Q 614.45 112.1 612.8 115.9 610.45 121 608.1 125.3 606.15 129.05 601.85 136 598.35 141.65 594.2 147.55 587.05 157.95 576.3 171.8
L 566.8 183.8
Q 564.4 186.7 561.9 189.45
L 561.45 189.95 561.3 190.15 556.85 194.7
Q 554.3 197.2 551.65 199.45
L 540.45 207.7 540.25 207.8 540.1 207.9 535.3 210.65 535.15 210.75 534.95 210.8 526.35 214.6
Q 522.4 216.05 518.65 216.9
L 517.85 217.1 517.45 217.15 517.1 217.25 515.7 217.5 515.4 217.6 511.7 218.2
Q 511.55 218.2 511.65 218.3 511.65 218.45 511.75 218.35
L 517.15 217.55 517.35 217.55 518.7 217.25
Q 523.15 216.25 526.55 215.05
L 535.25 211.4 535.4 211.3 535.6 211.25 536.85 210.55 537.2 210.4 537.5 210.2 540.15 208.75 540.45 208.55 540.65 208.45 545.5 205.3 552.2 200.15
Q 556.15 196.65 557.45 195.35
L 560.55 192.3 560.7 192.1 561.95 190.75 562.15 190.6
M 606.4 77.25
L 606.7 77.7 606.75 77.85 606.85 78 607.4 79.15
Q 607.9 80.5 608.15 81.65 608.5 83.4 608.5 85.2 608.6 87.2 608.2 89.55 607.75 92.3 607.05 94.65
L 605.2 100.25
Q 604 103.4 602.6 106.25
L 599.4 112.65
Q 597.45 116.35 595.65 119.3 592.1 125.35 586.8 133.2 581.1 141.55 576.55 147.6 572.4 153.25 565.5 162.1
L 557.1 172.6 556.9 172.8 554 176.25
Q 547.9 183.1 541.4 188.5
L 538.05 191.15
Q 536.55 192.3 534.65 193.55
L 534.05 194 527.8 197.8
Q 520.95 201.55 514.3 203.55 508.75 205.35 502.1 206.15 497.3 206.75 492.5 206.65
L 490.6 206.6
Q 490.05 206.6 489.75 206.55 489.2 206.55 488.95 206.5
L 484.15 206.1
Q 484.05 206 484.05 206.15 483.95 206.25 484.1 206.25
L 489.75 206.9
Q 490.3 206.9 490.6 206.95 491.2 206.95 491.5 207
L 492.5 207
Q 497.3 207.2 502.15 206.65
L 502.85 206.6 508.05 205.8
Q 510.85 205.25 514.5 204.2
L 517.85 203.1
Q 520.35 202.2 521.25 201.8 522.4 201.35 524.7 200.25 526.85 199.25 528.2 198.5 535.2 194.75 541.95 189.2 548.65 183.7 554.7 176.9
L 557.7 173.45 557.75 173.35 557.85 173.2 558.05 173 560.55 169.9
Q 562.45 167.5 563.45 166.35
L 566.25 162.75
Q 571.95 155.5 577.35 148.2 583.35 140.05 587.55 133.7 592.3 126.6 596.35 119.7 600.4 112.75 603.2 106.55 604.55 103.55 605.75 100.45
L 606.95 96.85 607.1 96.5 607.5 95.1 607.55 94.75
Q 608.3 92.05 608.6 89.6 608.95 87.45 608.85 85.15 608.85 83.6 608.45 81.6 608.1 80.25 607.6 79.05
L 606.55 77.1
Q 606.55 76.95 606.4 77.1 606.35 77.2 606.4 77.2
L 606.4 77.25
M 552.6 168
L 548.15 172.45
Q 548.1 172.55 548.15 172.6 548.25 172.7 548.3 172.6
L 558.15 163.1 571.65 146.6
Q 573.75 143.7 574.7 142.25
L 582.5 130.15 582.65 129.8 584.6 126.5
Q 584.75 126.35 584.55 126.35
L 584.45 126.35 572.45 143.9 563.75 155.25 552.6 168 Z"/>
</g>

<g id="Symbol_9_0_Layer1_0_FILL">
<path fill="#000000" stroke="none" d="
M 33.65 -16.7
L 17.7 -16.7 17.7 14.45 33.65 14.45 33.65 -16.7 Z"/>
</g>

<g id="Symbol_9_0_Layer1_0_STROKES_1_FILL">
<path fill="#FFFFFF" stroke="none" d="
M 33.65 -17
L 17.7 -16.8 17.6 -16.7 17.2 14.4
Q 17.2 14.9 17.65 14.9
L 33.6 14.9
Q 34.1 15 34.1 14.45
L 33.95 -16.7
Q 33.95 -17 33.65 -17
M 17.8 -16.55
L 33.3 -16.35 33.15 13.95 18.15 13.95 17.8 -16.55 Z"/>
</g>

<g id="Symbol_9_0_Layer0_0_FILL">
<path fill="#000000" stroke="none" d="
M 792.4 128.5
Q 785.55 128.5 780.65 133.35 775.8 138.25 775.8 145.1
L 775.8 193.45
Q 775.8 200.3 780.65 205.15 785.55 210.05 792.4 210.05
L 792.45 210.05
Q 799.3 210.05 804.15 205.15 809.05 200.3 809.05 193.45
L 809.05 145.1
Q 809.05 138.25 804.15 133.35 799.3 128.5 792.45 128.5
L 792.4 128.5 Z"/>
</g>

<g id="Symbol_9_0_Layer0_1_FILL">
<path fill="#000000" stroke="none" d="
M 815.45 145.1
Q 815.45 138.25 810.55 133.35 805.7 128.5 798.85 128.5
L 798.8 128.5
Q 791.95 128.5 787.05 133.35 782.2 138.25 782.2 145.1
L 782.2 193.45
Q 782.2 200.3 787.05 205.15 791.95 210.05 798.8 210.05
L 798.85 210.05
Q 805.7 210.05 810.55 205.15 815.45 200.3 815.45 193.45
L 815.45 145.1 Z"/>
</g>

<g id="Symbol_9_0_Layer0_2_STROKES_1_FILL">
<path fill="#FFFFFF" stroke="none" d="
M 800.2 129.9
L 799.9 129.8 799.75 129.7 797.85 129 797.55 128.95 797.3 128.85 796.75 128.75 796.5 128.65 796.25 128.65 795.8 128.55 792.7 128.35 792.45 128.4
Q 792.35 128.4 792.35 128.5
L 792.4 128.55 792.7 128.6 793.05 128.6 793.3 128.65 793.55 128.65
Q 795.4 128.9 796.65 129.25
L 798.7 130.05
Q 800 130.65 801 131.35 802.3 132.3 803.25 133.25
L 803.7 133.65 803.7 133.7 803.75 133.7 803.8 133.8 804.25 134.25 804.3 134.35 804.35 134.4 804.6 134.75 804.9 135.05 805.4 135.75
Q 806.25 136.9 807.1 138.8 807.75 140.4 808.05 142.4
L 808.1 142.65 808.1 142.9 808.15 143.4 808.15 143.65 808.2 143.9 808.2 194.6 808.15 194.85 808.15 195.1 808.1 195.6 808.1 195.8 808.05 196.05
Q 807.75 198.1 807.1 199.65 806.35 201.35 805.4 202.75
L 805.15 203.1 804.85 203.4 804.75 203.6 803.8 204.65 803.75 204.75 803.65 204.8 803.25 205.25
Q 801.95 206.45 800.95 207.15 799.7 208 798.7 208.45
L 798.15 208.65 797.9 208.8 797.4 209 797.15 209.05 796.65 209.25
Q 795.4 209.6 793.55 209.85
L 793.3 209.85 793.05 209.9 792.7 209.9 792.45 209.95 792.4 209.95
Q 792.25 209.95 792.35 210.05
L 792.45 210.15 795.8 209.95 797.3 209.65 797.55 209.55 797.85 209.5 799.75 208.8 799.9 208.7 800.85 208.25 801.45 207.85
Q 802.8 207.05 804 206
L 804.45 205.6 804.5 205.5 804.6 205.45 805.65 204.35 805.7 204.25 805.8 204.2 806.35 203.5
Q 807.45 202.15 808.35 200.25
L 809.1 198.35 809.6 196.3 809.6 196.05 809.75 195.25 809.75 194.95 809.8 194.7 809.85 144.85 809.8 143.75 809.75 143.5 809.75 143.25 809.55 142.2 809.5 141.65 809.1 140.15 808.35 138.25
Q 807.5 136.4 806.4 135
L 805.8 134.3 805.75 134.2 805.2 133.65 805.15 133.55 804.6 133.05 804.55 132.95 804.5 132.95 804.5 132.9 804.45 132.9 804 132.45
Q 802.5 131.25 801.45 130.6
L 801.15 130.4 800.5 130.1 800.2 129.9 Z"/>
</g>

<g id="Symbol_9_0_Layer0_4_STROKES_1_FILL">
<path fill="#FFFFFF" stroke="none" d="
M 800.2 129.9
L 799.9 129.8 799.75 129.7 797.85 129 797.55 128.95 797.3 128.85 796.75 128.75 796.5 128.65 796.25 128.65 795.8 128.55 792.7 128.35 792.45 128.4
Q 792.35 128.4 792.35 128.5
L 792.4 128.55 792.7 128.6 793.05 128.6 793.3 128.65 793.55 128.65
Q 795.4 128.9 796.65 129.25
L 798.7 130.05
Q 800 130.65 801 131.35 802.3 132.3 803.25 133.25
L 803.7 133.65 803.7 133.7 803.75 133.7 803.8 133.8 804.25 134.25 804.3 134.35 804.35 134.4 804.6 134.75 804.9 135.05 805.4 135.75
Q 806.25 136.9 807.1 138.8 807.75 140.4 808.05 142.4
L 808.1 142.65 808.1 142.9 808.15 143.4 808.15 143.65 808.2 143.9 808.2 194.6 808.15 194.85 808.15 195.1 808.1 195.6 808.1 195.8 808.05 196.05
Q 807.75 198.1 807.1 199.65 806.35 201.35 805.4 202.75
L 805.15 203.1 804.85 203.4 804.75 203.6 803.8 204.65 803.75 204.75 803.65 204.8 803.25 205.25
Q 801.95 206.45 800.95 207.15 799.7 208 798.7 208.45
L 798.15 208.65 797.9 208.8 797.4 209 797.15 209.05 796.65 209.25
Q 795.4 209.6 793.55 209.85
L 793.3 209.85 793.05 209.9 792.7 209.9 792.45 209.95 792.4 209.95
Q 792.25 209.95 792.35 210.05
L 792.45 210.15 795.8 209.95 797.3 209.65 797.55 209.55 797.85 209.5 799.75 208.8 799.9 208.7 800.85 208.25 801.45 207.85
Q 802.8 207.05 804 206
L 804.45 205.6 804.5 205.5 804.6 205.45 805.65 204.35 805.7 204.25 805.8 204.2 806.35 203.5
Q 807.45 202.15 808.35 200.25
L 809.1 198.35 809.6 196.3 809.6 196.05 809.75 195.25 809.75 194.95 809.8 194.7 809.85 144.85 809.8 143.75 809.75 143.5 809.75 143.25 809.55 142.2 809.5 141.65 809.1 140.15 808.35 138.25
Q 807.5 136.4 806.4 135
L 805.8 134.3 805.75 134.2 805.2 133.65 805.15 133.55 804.6 133.05 804.55 132.95 804.5 132.95 804.5 132.9 804.45 132.9 804 132.45
Q 802.5 131.25 801.45 130.6
L 801.15 130.4 800.5 130.1 800.2 129.9 Z"/>
</g>

<g id="Symbol_6_0_Layer0_0_FILL">
<path fill="#000000" stroke="none" d="
M 25.8 -51.65
Q 9.7 -57.95 7.75 -50.55 5.75 -44.1 3.05 -41.1 1.75 -39.7 0.1 -38.3
L 0.1 -38.25
Q -5.35 -33.65 -14.4 -29.2 -22.4 -25.4 -28.3 -17.95 -31.05 -14.45 -33.6 -5.65 -35.65 1.1 -40.9 5.45 -47.9 11.35 -42 14.05 -35.25 17.05 -27.5 10.55 -18.75 3.2 -15.4 -9.85 -10.25 4 -15.75 14.3 -23.15 25.5 -26.6 35.35 -31.75 39 -34.25 42.65 -44.6 42.55 -43 50.5 -38.75 49.6 -31.15 50.5 -29.65 50.05 -28.2 49.5 -27.9 49.6 -27.6 49.75 -24.4 51 -19.45 50.95 -19.25 51.15 -19.05 51.35 -16.95 53.3 -11.5 54.6 -3.3 53.15 1.25 51.7 1.7 51.7 2.15 51.7 2.45 51.65 2.85 51.65 7.4 51.3 13.75 48.3 21.35 41.85 24.45 29.45 39.6 5.85 43.95 -12.8 45.45 -19.15 43.95 -20.1 41.9 -45.4 25.8 -51.65 Z"/>
</g>

<g id="Symbol_6_0_Layer0_1_STROKES_1_FILL">
<path fill="#FFFFFF" stroke="none" d="
M 9.5 -53.9
L 8.5 -53.1 7.8 -52.05 7.3 -50.9 7.25 -50.75 7.25 -50.6 6.2 -47.65
Q 5.8 -46.5 5.3 -45.6 4.9 -44.65 4.25 -43.6 3.6 -42.5 3 -41.8
L 2.7 -41.5 2.65 -41.4 -0.2 -38.65
Q -0.3443359375 -38.5056640625 -0.35 -38.3
L -0.35 -38.4
Q -0.6 -37.7 -1.1 -36.8
L -1.4 -36.2 -1.55 -36 -1.75 -35.6 -7.4 -27.9 -8.3 -26.85 -8.45 -26.7 -12.05 -21.55 -12.7 -20.3 -12.95 -19.9 -14.3 -16.95 -15.4 -13.4
Q -15.5 -13.2 -15.4 -13.1
L -15.4 -13.05 -15 -12.25 -14.85 -12.05 -14.8 -11.85 -13.9 -9.95 -13.85 -9.75 -12.85 -7.2 -11.95 -4.15 -11.3 -0.1 -11.35 3.45 -11.35 3.7 -11.4 3.9 -11.5 4.8 -11.95 6.8 -12.05 7 -12.15 7.4 -12.25 7.65 -12.3 7.85 -12.8 9.1 -13.85 11.1 -14 11.3 -14.1 11.5 -15 12.8 -15.15 12.95 -15.4 13.35 -16 14.05
Q -16.3 14.35 -15.95 14.55
L -15.8 14.65 -15.3 14.75 -11.75 15.95 -8.6 17.85 -7.55 18.7 -7.35 18.9 -7.15 19.05 -6.75 19.45 -6.55 19.6 -6.4 19.8 -6 20.2 -5.85 20.4 -5.65 20.6 -5.5 20.8 -5.3 21 -5 21.4 -4.8 21.6 -2.8 24.75
Q -2.7 24.9 -2.5 24.9
L -1.35 24.95 -1.15 25 -0.65 25 -0.15 25.1 0 25.1 0.15 25.15
Q 0.35 25.2 0.8 25.3
L 1.15 25.35 1.8 25.55 2.1 25.7 2.9 26 3.05 26.1 3.35 26.25 3.5 26.35 3.65 26.4 3.75 26.5 4.35 26.9 4.45 27 4.7 27.2 4.8 27.25 4.85 27.3 4.95 27.45 5.45 27.9 5.9 28.45 6 28.55 6.5 29.25 6.65 29.55 6.7 29.55
Q 6.8 29.75 7 29.65
L 8.6 28.8 8.75 28.75 9 28.6 9.55 28.4 9.8 28.35 9.95 28.3 10.05 28.25 10.35 28.2 10.45 28.2 10.6 28.15 10.9 28.1 12.25 28.1 12.55 28.15 12.65 28.2 12.8 28.25
Q 13 28.25 13.35 28.4
L 13.45 28.45 13.85 28.6 14.2 28.8 14.3 28.9 14.45 28.95 14.55 29.05 15 29.35 15.2 29.55 15.4 29.6
Q 15.85 29.4 16.35 29.3
L 18.35 28.8 18.5 28.8 18.6 28.75 18.85 28.75 19 28.7 19.5 28.7 19.65 28.65 20.65 28.65 20.9 28.7 21.15 28.7 21.4 28.75 21.7 28.75 22.95 29 24.4 29.5
Q 24.45 29.55 24.5 29.5
L 32.8 15.65 33.05 15.3 37.25 6.95 41.3 -2.85 41.4 -3.05 44.45 -13.45
Q 44.95 -15.75 45 -16.85 45.1 -18.05 45 -18.65 45 -18.95 44.8 -19.55
L 44.55 -20 44.3 -20.25
Q 44.1390625 -22.3876953125 43.85 -24.7 43.3 -27.85 43 -29.25 42.6 -31.25 41.85 -33.75 41 -36.25 40.15 -38.05 39.3 -40.05 37.95 -42.15 36.6 -44.2 35.1 -45.85 33.5 -47.65 31.6 -49 29.65 -50.4 27.6 -51.35
L 27.05 -51.6 26.8 -51.75 21.05 -53.8 16.5 -54.8
Q 15.5 -55 14.15 -55 12.95 -55.1 11.8 -54.8 11.4 -54.75 10.6 -54.45 9.9 -54.2 9.5 -53.9
M 8.25 -50.6
L 8.65 -51.55
Q 9.2 -52.55 10.05 -53.05 10.2 -53.2 10.95 -53.55
L 12 -53.85
Q 13.05 -54.05 14.15 -54
L 16.4 -53.85 20.8 -52.85 26.65 -50.75 27.2 -50.5
Q 29.4 -49.45 31.05 -48.2 32.8 -46.95 34.4 -45.2 35.75 -43.8 37.2 -41.65 38.2 -40.1 39.35 -37.7 40.05 -36.15 41 -33.45 41.7 -31.2 42.2 -29.05 42.8 -26.25 43 -24.6
L 43.55 -20.05
Q 43.55 -19.8 43.7 -19.75 44 -19.55 44.05 -19.25
L 44.25 -18.55
Q 44.35 -17.7 44.25 -16.9 44.15 -15.75 43.75 -13.6
L 40.85 -3.45 40.75 -3.25 40.7 -3.05 37.95 4 37.75 4.35 31.25 17.7 24.4 29.3 22.5 28.65 21.45 28.45 21.2 28.45 20.95 28.4 19.1 28.4 18.95 28.45 18.6 28.45 18.45 28.5 18.3 28.5 15.35 29.2 15.45 29.3 15.25 29.25 15.35 29.2 15 28.9 14.75 28.75 14.65 28.65 14.5 28.6 14.4 28.5 14.25 28.4 14 28.3 13.75 28.15 12.75 27.8 12.6 27.8 12 27.7 11.9 27.7 11.75 27.65 10.85 27.7 10.55 27.75 10.4 27.75 10.25 27.8 9.95 27.85 9.8 27.9 9.7 27.95 9.4 28 8.45 28.35 8.3 28.45 7.8 28.65 6.95 29.1 6.9 29 6.4 28.25 5.8 27.6 5.6 27.3 5.3 27.05 5.2 26.95 5.1 26.9 4.8 26.6 3.9 25.95 3.75 25.9 3.3 25.6 3.15 25.55 2.3 25.15 1.65 24.95 1.3 24.8 0.05 24.55 -0.05 24.55 -0.4 24.45 -0.75 24.45 -1.1 24.4 -1.3 24.4 -1.45 24.35 -2.35 24.35 -2.25 24.5 -2.5 24.35 -2.35 24.35 -2.5 24 -4.15 21.45 -4.8 20.6 -5 20.4 -5.15 20.15 -5.75 19.55 -5.9 19.35 -6.7 18.55 -6.9 18.4 -7.3 18 -11 15.55 -13.5 14.5 -15.1 14.05 -13.3 11.7 -12.5 10.3 -11.55 8.1 -11.5 7.9 -11.4 7.7 -11.2 7.1 -11.2 7 -10.7 4.95 -10.65 4.45 -10.55 4 -10.55 3.75 -10.5 3.55 -10.5 -0.65 -11.1 -4.35 -11.85 -7.05 -11.95 -7.25 -12 -7.5 -12.3 -8.35 -14.5 -13.4 -14.55 -13.15 -14.55 -13.5 -14.5 -13.4 -13.05 -17.45 -13 -17.65 -11.8 -20.1 -11.65 -20.25 -11.45 -20.65 -7.85 -25.9 -7.7 -26.05 -0.9 -35.1 -0.7 -35.5 -0.55 -35.7 0.55 -38.05 0.4 -37.9 0.55 -38.25 0.55 -38.05 3.35 -40.7 3.4 -40.7 3.4 -40.75 3.45 -40.8 3.55 -40.95 3.75 -41.15
Q 4.5 -42.05 5.1 -43.1 5.85 -44.3 6.2 -45.15
L 7.15 -47.3
Q 7.4 -48.05 7.9 -49.5
L 8.2 -50.3 8.2 -50.4 8.25 -50.5 8.25 -50.6 Z"/>
</g>

<g id="Symbol_7_0_Layer2_0_FILL">
<path fill="#000000" stroke="none" d="
M 34.9 -71.05
Q 35.15 -73 35.4 -74.9 35.4 -75.05 35.4 -75.2 35.4 -88.1 26.2 -97.25 17.15 -106.35 4.25 -106.35 -8.65 -106.35 -17.8 -97.25 -23.55 -91.45 -25.65 -84.15 -26.35 -80.1 -26.9 -75.8 -28.15 -66.05 -29 -54.95
L -30.6 12.45
Q -26.85 22.15 -7.3 25.25 14 28.4 19.6 19.95
L 34.9 -71.05 Z"/>
</g>

<g id="Symbol_7_0_Layer2_1_FILL">
<path fill="#000000" stroke="none" d="
M 1389.55 290.05
Q 1389.55 277.15 1380.35 268 1371.3 258.9 1358.4 258.9 1345.5 258.9 1336.35 268 1327.25 277.15 1327.25 290.05 1327.25 302.95 1336.35 312.05 1345.5 321.2 1358.4 321.2 1371.3 321.2 1380.35 312.05 1389.55 302.95 1389.55 290.05 Z"/>
</g>

<g id="Symbol_7_0_Layer2_2_FILL">
<path fill="#000000" stroke="none" d="
M 0.85 94.6
L 1.7 93.35 20.4 23.75
Q 19.7 11.95 -1.65 7.35 -15.2 4.35 -22.75 6.55 -29.85 8.6 -31.7 15.15 -30.75 41.7 -35.35 67.4
L -22.65 97.7 -5.25 106.35 0.85 97.85 0.85 94.6 Z"/>
</g>

<g id="Symbol_7_0_Layer1_0_STROKES_1_FILL">
<path fill="#FFFFFF" stroke="none" d="
M 0.9 94.5
L 0.75 94.5 -2 98.45 -15.6 92 -15.55 92.1 -15.7 91.95 -15.6 92 -28.3 64.15 -25.2 50.15 -23.6 39.3 -22.45 24.75 -22.65 6.5
Q -22.65 6.4 -22.75 6.45 -22.85 6.45 -22.8 6.55
L -22.8 17.45 -24.5 39.2 -26.15 49.95 -29.3 64.15 -29.3 64.5 -16.2 92.45 -16.05 92.6 -2 98.9
Q -1.85 98.95 -1.75 98.85
L 0.9 94.65 0.9 94.5 Z"/>
</g>

<g id="Symbol_7_0_Layer0_0_STROKES_1_FILL">
<path fill="#FFFFFF" stroke="none" d="
M 20.4 23.8
Q 20.55 23.8 20.45 23.7
L 20.45 23
Q 20.35 22.05 20.1 21
L 19.85 20.15 19.75 19.95 19.65 19.6 18.65 17.6 18.55 17.5 18.5 17.4 18.2 17 18.1 16.8 17.75 16.4
Q 17.2 15.65 16.3 14.75
L 16.1 14.55 15.85 14.4 13.45 12.5 12.9 12.2 12.65 12 12.35 11.85 11.8 11.5 11.65 11.45 11.5 11.35 10.9 11.05 10.75 10.95 10.6 10.9 10 10.6 9.85 10.5 9.7 10.45 9.05 10.15 8.9 10.1 8.75 10 7.45 9.5
Q 4.75 8.45 1.9 7.7
L -6.85 5.85
Q -7.8 5.65 -9.8 5.45
L -13.45 5.15 -19.75 5.45 -20.75 5.65 -20.8 5.65 -20.9 5.7 -21.05 5.7 -21.7 5.85 -22 5.95 -22.3 6 -22.8 6.15 -22.85 6.15 -22.95 6.2 -23.5 6.4
Q -24.85 6.8 -25.7 7.35
L -27.15 8.2 -27.55 8.5
Q -28.45 9.25 -29 9.85 -29.6 10.45 -30.1 11.2
L -30.85 12.5 -30.95 12.8 -31.1 13.05 -31.6 14.4 -31.75 15.1
Q -31.85 15.2 -31.7 15.2 -31.6 15.3 -31.6 15.15
L -31.5 15 -31.45 14.75 -31.35 14.5
Q -31 13.55 -30.5 12.65 -29.8 11.35 -28.65 10.2 -27.3 8.85 -25.4 7.9 -24.15 7.35 -23.3 7.1
L -22.7 6.9 -22.6 6.9 -22.55 6.85 -22.4 6.85 -22.1 6.75 -21.8 6.7 -21.5 6.6 -20.9 6.5 -20.75 6.45 -20.6 6.45 -19.65 6.3 -12.45 6.15 -9.9 6.4
Q -6.45 6.85 -4.1 7.35
L 1.65 8.65 2 8.7 8.7 10.95 9.3 11.25 9.65 11.35 10.25 11.65 10.4 11.7 10.5 11.8 11.1 12.1 11.25 12.15 11.4 12.25 11.95 12.55
Q 12.9 13.05 14.05 13.85
L 14.3 14 14.5 14.2 15.4 14.9 15.65 15.05 16.05 15.45 16.25 15.6 16.8 16.2 16.95 16.4 17.15 16.55 17.25 16.65 17.3 16.75 17.65 17.15 17.7 17.25 17.8 17.35 18.05 17.7 18.15 17.8 19.4 20.1 19.5 20.45 19.65 20.75 20.05 22.2 20.05 22.3 20.1 22.4 20.1 22.65 20.2 23 20.3 23.75
Q 20.3 23.9 20.4 23.8 Z"/>
</g>

<g id="Symbol_8_0_Layer1_0_FILL">
<path fill="#000000" stroke="none" d="
M 38.2 -30.3
L 41.3 -31.4
Q 29.55 -95.55 10.25 -113.4 -16.5 -123.85 -40.25 -91.3 -43.05 -87.45 -45.1 -83.1
L -44.55 -81.8
Q -44.85 -81.25 -45.15 -80.65 -54.4 -61.3 -49.15 -30.8
L -10.55 92.15 50.25 76.6
Q 45.95 12.5 38.2 -30.3 Z"/>
</g>

<g id="Symbol_8_0_Layer1_1_FILL">
<path fill="#000000" stroke="none" d="
M 1389.55 290.05
Q 1389.55 277.15 1380.35 268 1371.3 258.9 1358.4 258.9 1345.5 258.9 1336.35 268 1327.25 277.15 1327.25 290.05 1327.25 302.95 1336.35 312.05 1345.5 321.2 1358.4 321.2 1371.3 321.2 1380.35 312.05 1389.55 302.95 1389.55 290.05 Z"/>
</g>

<g id="Symbol_8_0_Layer0_0_STROKES_1_FILL">
<path fill="#FFFFFF" stroke="none" d="
M 41.35 -31.4
Q 41.35 -31.55 41.25 -31.45
L -8.6 -15.05 -8.5 -15.05 -10.85 -14.65
Q -12.05 -14.55 -13.1 -14.8 -14.25 -15.1 -15 -15.75 -15.75 -16.4 -16.3 -17.45
L -16.45 -17.7 -16.65 -18.25 -16.7 -18.3 -16.7 -18.4 -16.8 -18.55 -45 -83.1
Q -45 -83.25 -45.1 -83.15 -45.25 -83.15 -45.15 -83.05
L -18.6 -17.8 -18.55 -17.65 -18.55 -17.55 -18.5 -17.5 -18.25 -16.85 -18.05 -16.55
Q -17.8 -15.95 -17.3 -15.3 -16.85 -14.7 -16.25 -14.25 -15.75 -13.8 -15 -13.4 -14.15 -13 -13.55 -12.9 -12.45 -12.6 -10.7 -12.7
L -9.35 -12.9
Q -9.15 -12.9 -8.05 -13.2
L -7.95 -13.2 41.3 -31.3
Q 41.45 -31.3 41.35 -31.4 Z"/>
</g>

<path id="Symbol_9_copy_0_Layer0_3_MEMBER_0_1_STROKES" stroke="#FFFFFF" stroke-width="1" stroke-linejoin="round" stroke-linecap="round" fill="none" d="
M -20.492504882812455 -3.1621429443359546
Q -20.492504882812455 -0.5507270812988168 -19.403910827636764 1.2571762084961051 -18.31531677246096 3.065079498291027 -16.74290313720701 3.065079498291027 -15.17048950195317 3.065079498291027 -14.081895446777366 1.2571762084961051 -12.993301391601562 -0.5507270812988168 -12.993301391601562 -3.1621429443359546 -12.993301391601562 -5.7735588073730355 -14.081895446777366 -7.581462097167957 -15.17048950195317 -9.38936538696285 -16.74290313720701 -9.38936538696285 -18.31531677246096 -9.38936538696285 -19.403910827636764 -7.581462097167957 -20.492504882812455 -5.7735588073730355 -20.492504882812455 -3.1621429443359546 Z"/>

<path id="Symbol_9_copy_0_Layer0_3_MEMBER_1_1_STROKES" stroke="#FFFFFF" stroke-width="1" stroke-linejoin="round" stroke-linecap="round" fill="none" d="
M -18.333581542968773 -3.1399475097656335
Q -18.333581542968773 -2.0497970581054688 -17.879138946533203 -1.2950775146484403 -17.42469635009769 -0.5403579711914119 -16.76827926635741 -0.5403579711914119 -16.111862182617188 -0.5403579711914119 -15.657419586181675 -1.2950775146484403 -15.202976989746105 -2.0497970581054688 -15.202976989746105 -3.1399475097656335 -15.202976989746105 -4.230097961425784 -15.657419586181675 -4.9848175048828125 -16.111862182617188 -5.739537048339841 -16.76827926635741 -5.739537048339841 -17.42469635009769 -5.739537048339841 -17.879138946533203 -4.9848175048828125 -18.333581542968773 -4.230097961425784 -18.333581542968773 -3.1399475097656335 Z"/>

<path id="Symbol_9_0_Layer0_3_MEMBER_0_1_STROKES" stroke="#FFFFFF" stroke-width="1" stroke-linejoin="round" stroke-linecap="round" fill="none" d="
M 20.480993652343727 -3.254809570312517
Q 20.480993652343727 -0.6433044433593693 19.39233779907238 1.1646606445312386 18.303681945800804 2.9726257324218466 16.731179046630928 2.9726257324218466 15.158676147461051 2.9726257324218466 14.070020294189476 1.1646606445312386 12.981364440918014 -0.6433044433593693 12.981364440918014 -3.254809570312517 12.981364440918014 -5.866314697265636 14.070020294189476 -7.674279785156244 15.158676147461051 -9.48224487304688 16.731179046630928 -9.48224487304688 18.303681945800804 -9.48224487304688 19.39233779907238 -7.674279785156244 20.480993652343727 -5.866314697265636 20.480993652343727 -3.254809570312517 Z"/>

<path id="Symbol_9_0_Layer0_3_MEMBER_1_1_STROKES" stroke="#FFFFFF" stroke-width="1" stroke-linejoin="round" stroke-linecap="round" fill="none" d="
M 18.309240722656227 -3.182614135742199
Q 18.309240722656227 -2.09237442016601 17.854756927490257 -1.3375930786132812 17.40027313232423 -0.5828117370605526 16.74379653930663 -0.5828117370605526 16.087319946289085 -0.5828117370605526 15.632836151123058 -1.3375930786132812 15.178352355957031 -2.09237442016601 15.178352355957031 -3.182614135742199 15.178352355957031 -4.272853851318359 15.632836151123058 -5.027635192871088 16.087319946289085 -5.782416534423817 16.74379653930663 -5.782416534423817 17.40027313232423 -5.782416534423817 17.854756927490257 -5.027635192871088 18.309240722656227 -4.272853851318359 18.309240722656227 -3.182614135742199 Z"/>
</defs>

<g transform="matrix( -0.897186279296875, 0, 0, 0.897186279296875, 614.75,1012.05) ">
<g transform="matrix( 1, 0, 0, 1, -1096.8,-949.85) ">
<use xlink:href="#Symbol_1_0_Layer0_0_FILL"/>
</g>

<g transform="matrix( 1, 0, 0, 1, -1096.8,-949.85) ">
<use xlink:href="#Symbol_1_0_Layer0_1_FILL"/>
</g>
</g>

<g transform="matrix( -0.897186279296875, 0, 0, 0.897186279296875, 578,887.9) ">
<g transform="matrix( 1, 0, 0, 1, -1137.75,-811.45) ">
<use xlink:href="#Symbol_2_0_Layer0_0_FILL"/>
</g>

<g transform="matrix( 1, 0, 0, 1, -1137.75,-811.45) ">
<use xlink:href="#Symbol_2_0_Layer0_1_FILL"/>
</g>

<g transform="matrix( 1, 0, 0, 1, -1137.75,-811.45) ">
<use xlink:href="#Symbol_2_0_Layer0_2_FILL"/>
</g>
</g>

<g transform="matrix( 0.6369476318359375, -0.4891815185546875, 0.4891815185546875, 0.6369476318359375, 665.6,579.3) ">
<g transform="matrix( 1, 0, 0, 1, 0,0) ">
<use xlink:href="#Symbol_6_copy_0_Layer0_0_FILL"/>
</g>

<g transform="matrix( 1, 0, 0, 1, 0,0) ">
<use xlink:href="#Symbol_6_copy_0_Layer0_1_STROKES_1_FILL"/>
</g>
</g>

<g transform="matrix( 3.366119384765625, 0, 0, 2.9385223388671875, -674.25,-447.55) ">
<use xlink:href="#Layer4_3_MEMBER_0_FILL"/>
</g>

<g transform="matrix( 3.366119384765625, 0, 0, 2.9385223388671875, -674.25,-447.55) ">
<use xlink:href="#Layer4_3_MEMBER_1_FILL"/>
</g>

<g transform="matrix( -1.399261474609375, 0, 0, 1.221527099609375, 1281.45,-34.15) ">
<use xlink:href="#Layer4_3_MEMBER_2_FILL"/>
</g>

<g transform="matrix( 3.366119384765625, 0, 0, 2.9385223388671875, -674.25,-447.55) ">
<use xlink:href="#Layer4_3_MEMBER_3_FILL"/>
</g>

<g transform="matrix( 3.3659210205078125, 0, 0, 2.9383697509765625, -674.25,-447.55) ">
<use xlink:href="#Layer4_3_MEMBER_4_FILL"/>
</g>

<g transform="matrix( 3.366119384765625, 0, 0, 2.9385223388671875, -674.25,-447.55) ">
<use xlink:href="#Layer4_3_MEMBER_5_FILL"/>
</g>

<g transform="matrix( -0.87530517578125, 0.196624755859375, 0.196624755859375, 0.87530517578125, 634.15,472.9) ">
<g transform="matrix( 1, 0, 0, 1, -1354.15,-365.25) ">
<use xlink:href="#Symbol_7_copy_0_Layer2_0_FILL"/>
</g>

<g transform="matrix( 1, 0, 0, 1, -1354.15,-365.25) ">
<use xlink:href="#Symbol_7_copy_0_Layer2_1_FILL"/>
</g>

<g transform="matrix( 1, 0, 0, 1, 0,0) ">
<use xlink:href="#Symbol_7_copy_0_Layer1_0_FILL"/>
</g>

<g transform="matrix( 1, 0, 0, 1, 0,0) ">
<use xlink:href="#Symbol_7_copy_0_Layer0_0_STROKES_1_FILL"/>
</g>

<g transform="matrix( 1, 0, 0, 1, 0,0) ">
<use xlink:href="#Symbol_7_copy_0_Layer0_1_STROKES_1_FILL"/>
</g>
</g>

<g transform="matrix( -0.86273193359375, 0.2460784912109375, 0.2460784912109375, 0.86273193359375, 611.75,329.95) ">
<g transform="matrix( 1, 0, 0, 1, 0,0) ">
<use xlink:href="#Symbol_8_copy_0_Layer1_0_FILL"/>
</g>

<g transform="matrix( 0.9510498046875, -0.308990478515625, 0.308990478515625, 0.9510498046875, -1361.7,228.6) ">
<use xlink:href="#Symbol_8_copy_0_Layer1_1_FILL"/>
</g>

<g transform="matrix( 1, 0, 0, 1, 0,0) ">
<use xlink:href="#Symbol_8_copy_0_Layer0_0_STROKES_1_FILL"/>
</g>
</g>

<g transform="matrix( -0.897186279296875, 0, 0, 0.897186279296875, 578.45,652.35) ">
<g transform="matrix( 1, 0, 0, 1, -1137.25,-549) ">
<use xlink:href="#Symbol_3_0_Layer0_0_FILL"/>
</g>

<g transform="matrix( 1, 0, 0, 1, 0,0) ">
<use xlink:href="#Symbol_3_0_Layer0_1_FILL"/>
</g>

<g transform="matrix( 1, 0, 0, 1, -1137.25,-549) ">
<use xlink:href="#Symbol_3_0_Layer0_2_FILL"/>
</g>

<g transform="matrix( 1, 0, 0, 1, 0,0) ">
<use xlink:href="#Symbol_3_0_Layer0_3_FILL"/>

<use xlink:href="#Symbol_3_0_Layer0_3_STROKES_1_FILL"/>
</g>

<g transform="matrix( 1, 0, 0, 1, 0,0) ">
<use xlink:href="#Symbol_3_0_Layer0_4_FILL"/>

<use xlink:href="#Symbol_3_0_Layer0_4_STROKES_1_FILL"/>
</g>

<g transform="matrix( 1, 0, 0, 1, -1137.25,-549) ">
<use xlink:href="#Symbol_3_0_Layer0_5_FILL"/>

<use xlink:href="#Symbol_3_0_Layer0_5_STROKES_1_FILL"/>
</g>
</g>

<g transform="matrix( -0.897186279296875, 0, 0, 0.897186279296875, 515.05,1012.05) ">
<g transform="matrix( 1, 0, 0, 1, -1096.8,-949.85) ">
<use xlink:href="#Symbol_1_0_Layer0_0_FILL"/>
</g>

<g transform="matrix( 1, 0, 0, 1, -1096.8,-949.85) ">
<use xlink:href="#Symbol_1_0_Layer0_1_FILL"/>
</g>
</g>

<g transform="matrix( -0.897186279296875, 0, 0, 0.897186279296875, 478.3,887.9) ">
<g transform="matrix( 1, 0, 0, 1, -1137.75,-811.45) ">
<use xlink:href="#Symbol_2_0_Layer0_0_FILL"/>
</g>

<g transform="matrix( 1, 0, 0, 1, -1137.75,-811.45) ">
<use xlink:href="#Symbol_2_0_Layer0_1_FILL"/>
</g>

<g transform="matrix( 1, 0, 0, 1, -1137.75,-811.45) ">
<use xlink:href="#Symbol_2_0_Layer0_2_FILL"/>
</g>
</g>

<g transform="matrix( -0.897186279296875, 0, 0, 0.897186279296875, 478.75,652.35) ">
<g transform="matrix( 1, 0, 0, 1, -1137.25,-549) ">
<use xlink:href="#Symbol_3_copy_0_Layer0_0_FILL"/>
</g>

<g transform="matrix( 1, 0, 0, 1, 0,0) ">
<use xlink:href="#Symbol_3_copy_0_Layer0_1_FILL"/>

<use xlink:href="#Symbol_3_copy_0_Layer0_1_STROKES_1_FILL"/>
</g>

<g transform="matrix( 1, 0, 0, 1, -1137.25,-549) ">
<use xlink:href="#Symbol_3_copy_0_Layer0_2_FILL"/>
</g>

<g transform="matrix( 1, 0, 0, 1, -1137.25,-549) ">
<use xlink:href="#Symbol_3_copy_0_Layer0_3_FILL"/>

<use xlink:href="#Symbol_3_copy_0_Layer0_3_STROKES_1_FILL"/>
</g>

<g transform="matrix( 2.189208984375, 0, 0, 2.72119140625, -675.55,-868.3) ">
<use xlink:href="#Symbol_3_copy_0_Layer0_4_FILL"/>

<use xlink:href="#Symbol_3_copy_0_Layer0_4_STROKES_1_FILL"/>
</g>

<g transform="matrix( 1, 0, 0, 1, 0,0) ">
<use xlink:href="#Symbol_3_copy_0_Layer0_5_FILL"/>

<use xlink:href="#Symbol_3_copy_0_Layer0_5_STROKES_1_FILL"/>
</g>
</g>

<g transform="matrix( -0.897186279296875, 0, 0, 0.897186279296875, 525.85,555.55) ">
<g transform="matrix( 1, 0, 0, 1, 0,0) ">
<use xlink:href="#Symbol_4_0_Layer0_0_FILL"/>
</g>

<g transform="matrix( 1, 0, 0, 1, 0,0) ">
<use xlink:href="#Symbol_4_0_Layer0_1_STROKES_1_FILL"/>
</g>
</g>

<g transform="matrix( -0.897186279296875, 0, 0, 0.897186279296875, 511,363.9) ">
<g transform="matrix( 1, 0, 0, 1, 0,0) ">
<use xlink:href="#Symbol_5_0_Layer0_0_FILL"/>
</g>

<g transform="matrix( 1, 0, 0, 1, 0,0) ">
<use xlink:href="#Symbol_5_0_Layer0_1_STROKES_1_FILL"/>
</g>

<g transform="matrix( 1, 0, 0, 1, 0,0) ">
<use xlink:href="#Symbol_5_0_Layer0_2_STROKES_1_FILL"/>
</g>

<g transform="matrix( 1, 0, 0, 1, 0,0) ">
<use xlink:href="#Symbol_5_0_Layer0_3_STROKES_1_FILL"/>
</g>
</g>

<g transform="matrix( -1, 0, 0, 1, 1072.6,0) ">
<use xlink:href="#Layer4_12_MEMBER_0_MEMBER_0_FILL"/>
</g>

<g transform="matrix( -1.5278167724609375, 0.0528564453125, 0, 1.5278167724609375, 970.7,-105.55) ">
<use xlink:href="#Layer4_12_MEMBER_0_MEMBER_1_FILL"/>
</g>

<g transform="matrix( -1.5278167724609375, 0.0528564453125, 0, 1.5278167724609375, 970.7,-105.55) ">
<use xlink:href="#Layer4_12_MEMBER_0_MEMBER_2_FILL"/>
</g>

<g transform="matrix( -1, 0, 0, 1, 1072.6,0) ">
<use xlink:href="#Layer4_12_MEMBER_0_MEMBER_3_STROKES_1_FILL"/>
</g>

<g transform="matrix( -0.5015716552734375, 0, 0, 0.5015716552734375, 594.85,102.75) ">
<g transform="matrix( 0.6932220458984375, 0, 0, 1, 10.5,0) ">
<use xlink:href="#Symbol_9_copy_0_Layer1_0_FILL"/>

<use xlink:href="#Symbol_9_copy_0_Layer1_0_STROKES_1_FILL"/>
</g>

<g transform="matrix( -1, 0, 0, 1, 798.2,-169.25) ">
<use xlink:href="#Symbol_9_copy_0_Layer0_0_FILL"/>
</g>

<g transform="matrix( -1, 0, 0, 1, 793.05,-169.25) ">
<use xlink:href="#Symbol_9_copy_0_Layer0_1_FILL"/>
</g>

<g transform="matrix( -1, 0, 0, 1, 798.2,-169.25) ">
<use xlink:href="#Symbol_9_copy_0_Layer0_2_STROKES_1_FILL"/>
</g>

<g transform="matrix( -0.806365966796875, 0, 0, 1.3391876220703125, 657.5,-217.7) ">
<use xlink:href="#Symbol_9_copy_0_Layer0_3_MEMBER_0_1_STROKES" transform="matrix( -1.2401275634765625, 0, 0, 0.7467193603515625, 815.35,162.55) "/>
</g>

<g transform="matrix( -0.3366241455078125, 0, 0, 0.559051513671875, 264.7,-92.7) ">
<use xlink:href="#Symbol_9_copy_0_Layer0_3_MEMBER_1_1_STROKES" transform="matrix( -2.9706573486328125, 0, 0, 1.7887420654296875, 786.3,165.8) "/>
</g>

<g transform="matrix( -1, 0, 0, 1, 786.65,-169.25) ">
<use xlink:href="#Symbol_9_copy_0_Layer0_4_STROKES_1_FILL"/>
</g>
</g>

<g transform="matrix( -1, 0, 0, 1, 1072.6,0) ">
<use xlink:href="#Layer4_12_MEMBER_2_FILL"/>
</g>

<g transform="matrix( -1, 0, 0, 1, 1072.6,0) ">
<use xlink:href="#Layer4_12_MEMBER_3_STROKES_1_FILL"/>
</g>

<g transform="matrix( 0.5015716552734375, 0, 0, 0.5015716552734375, 470.5,102.75) ">
<g transform="matrix( 0.6932220458984375, 0, 0, 1, 10.5,0) ">
<use xlink:href="#Symbol_9_0_Layer1_0_FILL"/>

<use xlink:href="#Symbol_9_0_Layer1_0_STROKES_1_FILL"/>
</g>

<g transform="matrix( 1, 0, 0, 1, -798.2,-169.25) ">
<use xlink:href="#Symbol_9_0_Layer0_0_FILL"/>
</g>

<g transform="matrix( 1, 0, 0, 1, -793.05,-169.25) ">
<use xlink:href="#Symbol_9_0_Layer0_1_FILL"/>
</g>

<g transform="matrix( 1, 0, 0, 1, -798.2,-169.25) ">
<use xlink:href="#Symbol_9_0_Layer0_2_STROKES_1_FILL"/>
</g>

<g transform="matrix( 0.8064117431640625, 0, 0, 1.3392333984375, -657.55,-217.8) ">
<use xlink:href="#Symbol_9_0_Layer0_3_MEMBER_0_1_STROKES" transform="matrix( 1.24005126953125, 0, 0, 0.7466888427734375, 815.4,162.6) "/>
</g>

<g transform="matrix( 0.3366546630859375, 0, 0, 0.5590972900390625, -264.75,-92.75) ">
<use xlink:href="#Symbol_9_0_Layer0_3_MEMBER_1_1_STROKES" transform="matrix( 2.97039794921875, 0, 0, 1.7885894775390625, 786.4,165.85) "/>
</g>

<g transform="matrix( 1, 0, 0, 1, -786.65,-169.25) ">
<use xlink:href="#Symbol_9_0_Layer0_4_STROKES_1_FILL"/>
</g>
</g>

<g transform="matrix( -0.896697998046875, -0.0279998779296875, -0.0279998779296875, 0.896697998046875, 421.5,595.2) ">
<g transform="matrix( 1, 0, 0, 1, 0,0) ">
<use xlink:href="#Symbol_6_0_Layer0_0_FILL"/>
</g>

<g transform="matrix( 1, 0, 0, 1, 0,0) ">
<use xlink:href="#Symbol_6_0_Layer0_1_STROKES_1_FILL"/>
</g>
</g>

<g transform="matrix( -0.897125244140625, 0.00762939453125, 0.00762939453125, 0.897125244140625, 384.5,498.5) ">
<g transform="matrix( 1, 0, 0, 1, 0,0) ">
<use xlink:href="#Symbol_7_0_Layer2_0_FILL"/>
</g>

<g transform="matrix( 1, 0, 0, 1, -1354.15,-365.25) ">
<use xlink:href="#Symbol_7_0_Layer2_1_FILL"/>
</g>

<g transform="matrix( 1, 0, 0, 1, 0,0) ">
<use xlink:href="#Symbol_7_0_Layer2_2_FILL"/>
</g>

<g transform="matrix( 1, 0, 0, 1, 0,0) ">
<use xlink:href="#Symbol_7_0_Layer1_0_STROKES_1_FILL"/>
</g>

<g transform="matrix( 1, 0, 0, 1, 0,0) ">
<use xlink:href="#Symbol_7_0_Layer0_0_STROKES_1_FILL"/>
</g>
</g>

<g transform="matrix( -0.897186279296875, 0, 0, 0.897186279296875, 397.65,355.1) ">
<g transform="matrix( 1, 0, 0, 1, 0,0) ">
<use xlink:href="#Symbol_8_0_Layer1_0_FILL"/>
</g>

<g transform="matrix( 0.9510498046875, -0.308990478515625, 0.308990478515625, 0.9510498046875, -1361.7,228.6) ">
<use xlink:href="#Symbol_8_0_Layer1_1_FILL"/>
</g>

<g transform="matrix( 1, 0, 0, 1, 0,0) ">
<use xlink:href="#Symbol_8_0_Layer0_0_STROKES_1_FILL"/>
</g>
</g>
</svg>
